<svg xmlns="http://www.w3.org/2000/svg" viewBox="0 0 1844 834.67"><defs><style>.cls-1{fill:#d6d6d6;stroke:#fff;}.cls-2{fill:none;}</style></defs><title>Recurso 10</title><g id="Capa_2" data-name="Capa 2"><g id="Capa_1-2" data-name="Capa 1"><path class="cls-1" d="M1495.76,354.58c1.5,2.22,3.63,3.87,5.39,5.85a2.28,2.28,0,0,1-2.11,1.89c-4.69-1.67-7.41-5.66-10.54-9.12a53.51,53.51,0,0,1-5.64-8.31,9.59,9.59,0,0,0-8.58-5,16.34,16.34,0,0,1-3-.31c-5.56-1.07-6.9-3-5.84-8.56a74.19,74.19,0,0,0,1.76-12.88c.06-4.06,2.31-6.41,7-6.79a25.53,25.53,0,0,0,11.13-3.71c3.25-1.91,6.73-2.4,10.31-.56,2.33,1.2,4.79,1,7.28.43a139.33,139.33,0,0,0,16-4.9,2.68,2.68,0,0,1,2.53,1.09,1.61,1.61,0,0,0,2.53.14c4.76-3.12,9.33-6.52,14.06-9.68,3.92-2.61,4.28-3.85,2.38-8a116.63,116.63,0,0,1-4.54-11.77c-.81-2.15-1.81-4.22-2.82-6.29-1.36-3.42-3-6.74-3.17-10.53a2.47,2.47,0,0,1,2.46-1.09,4.52,4.52,0,0,1,2.69,3.31,11.51,11.51,0,0,0,3.66,5.81,5.16,5.16,0,0,1,.51,2.12c0,.53,0,1.06,0,1.59a7.27,7.27,0,0,0,.47,2.53,69.47,69.47,0,0,0,4.92,12.07c1.22,2.44,2.42,3.11,4.82,1.28,17.71-13.49,37.07-24.59,55.11-37.6,3.33-2.4,7.08-4.15,10.23-6.83,2.09-1.79,4.21-1.36,6,.54,7.35,8,15.51,15.26,20.8,25.1s12.75,18,19.85,26.51c6.38,7.63,11.95,15.89,18.11,23.7,7.84,9.93,17,18.09,28.9,22.8a3.34,3.34,0,0,1,.91.64c.38,1.73,1.93,2.4,3.12,3.4a68.56,68.56,0,0,0-6.39,2.83,69.47,69.47,0,0,1-16.46,5.8,250.17,250.17,0,0,0-40,12.82c-5.62,2.29-11.32,4.48-17.47,5-4.4.37-8.65-.09-12.5-2.5-.35-1.3.7-1.6,1.49-2.08a6.3,6.3,0,0,1,3.31-.07,33.51,33.51,0,0,0,19-2.34c15.09-6.67,30.85-11.19,46.85-15a73.8,73.8,0,0,0,14-5c-1.76-1.89-3.91-2.2-5.75-2.94a26.36,26.36,0,0,1-11.41-8.07c-12.87-16.29-26.43-32-39.27-48.36-6-7.62-10.7-16.18-16.76-23.78-3.82-4.79-8.42-8.78-12.62-13.18a2.25,2.25,0,0,0-3-.5,14,14,0,0,0-1.27.78c-19.24,14-39.6,26.24-58.88,40.12a49,49,0,0,1-4.62,3.16c-2,1.13-3.29,2.28-2.3,5,.7,1.91-.62,3.12-2.65,3-3.85-.29-6.54,2-9.41,4-1.53,1-2,2.38-.33,3.6,7.82,5.68,8.22,14.58,10,22.87-.65,1.06-.73,2.46-1.93,3.19-1.56-2.73-2-5.81-2.82-8.78a55.5,55.5,0,0,0-2.93-8.78,16.13,16.13,0,0,0-9-8.4,1.81,1.81,0,0,0-2.3.26c-4.45,4.24-9.94,6.38-15.78,7.79a11.25,11.25,0,0,0-1.6.69c1.9,3.44,3.72,6.76,5.55,10.08.59,1.28,0,1.91-1.2,2.16-2.06-.11-2.84-1.77-3.76-3.2-1.14-1.76-2.14-3.6-3.45-5.25-2.57-3.23-5.63-4.73-9.73-3a10.69,10.69,0,0,1-5.1.63c-3.09-.25-5,1-5.47,4.1a1.32,1.32,0,0,1-2.58.32c-.47-1.1-.15-2.44-1-3.4-2.58.36-4.25,3-4.06,6.5.1,1.73.73,3.41.57,5.17-.1,1.08,0,2.51-1.32,2.75-1.05.19-1.66-.91-2.17-1.78-2.1-3.67-2.65-7.42-.75-11.38.37-.77,1.46-1.85.21-2.57a1.74,1.74,0,0,0-2.39,1.19c-1.06,5.16-3,10.24-2.06,15.63.3,1.67,1.8,2.6,3.33,3.28,2.07.92,2.51-.65,3.24-2s1.73-1.25,2.84-.48a11.78,11.78,0,0,1,3.19,3.59C1487.37,343,1490.62,349.42,1495.76,354.58Z"/><path class="cls-1" d="M1444.19,173.83c4.25-8.83,8.77-17.55,12.68-26.53a135.5,135.5,0,0,1,12.46-22c1.43-2.09,3.4-3.06,5.78-2.15,1.65.63,2.51,0,3.47-1.07s2.1-2.13,3.09-3.24c10.06-11.37,22.59-19.39,36-26.06a72.38,72.38,0,0,1,41.27-7.08,47,47,0,0,1,27.16,12.75c.67.88.28,1.42-.58,1.81a4.25,4.25,0,0,1-3.09-1c-18-12.46-37.05-12.88-56.88-5.27a98.84,98.84,0,0,0-33.82,21.36c-5.69,5.52-12.4,10-17,16.69a3.53,3.53,0,0,1-3.85,1.74c-1.47-.41-1-1.76-1-2.53-10.13,17.15-17.79,35.79-25.7,54.31q-4.18,9.78-8.19,19.63a26.94,26.94,0,0,0-1.64,16.68c1.91,8.59,2,17.48,1.88,26.32-.09,5-.18,10,.09,14.93.05,1,.11,2.28,1.18,2.53s1.54-1,2-1.86a32.77,32.77,0,0,0,2.82-6.49,222.59,222.59,0,0,1,42.5-74.37c9.71-11.2,19.72-22.06,30.33-32.39,1.76-1.72,3.57-3.5,6.12-4.1a1.7,1.7,0,0,1,1.83,1.87c-.24,1.51-1.51,2.22-2.47,3.16-17,16.66-33.19,34-46.48,53.86a250.78,250.78,0,0,0-27.14,53.89,77.19,77.19,0,0,1-4.58,9.79c-1.27,2.41-3.21,3.91-6.06,3.26s-4-2.74-4.27-5.47c-.37-4.58-1.1-9.13-.85-13.76.55-10.09-.74-20.1-1.52-30.13a9.43,9.43,0,0,0-3.67-7,3,3,0,0,1-1.57-2.39c1-1.91,1.42-4.15,3.23-5.59a2.21,2.21,0,0,1,1.56,0c2.28.58,1.84-1.49,2.22-2.49,3.36-8.9,6.76-17.78,10.06-26.71C1442.24,177,1442.72,175.13,1444.19,173.83Z"/><path class="cls-1" d="M1659.31,183.61c-1,.92-2,1.86-3,2.74s-2.17,2-4,1.91c-.25-2.33.86-3.89,2.26-5.32,1-1.07,2.16-2.07,3.13-3.19.64-.74,1.32-1.62.52-2.67s-1.8-2-3.14-1.33c-2.31,1.18-4.51,2.59-6.72,4a2.69,2.69,0,0,0-.87,1.18c-1.72,4.1,1.64,10.61,6,11.49s8.85,1.37,13.22,2.31a105,105,0,0,0,18.72,2.32c8.54.3,14.34,6.65,15,15.18.28,3.57.09,7.2,1.42,10.65a4.42,4.42,0,0,1-.21,3.3c-.44,1-.87,2.21-2.07,2.48-1.37.32-1.35-1.12-1.89-1.85-.4-.53-.91-.81-2-.43a40.91,40.91,0,0,0,5.08,10.91c.53.83,1.31,1.52,1.81,2.36a7.75,7.75,0,0,0,6.85,4.2,6.74,6.74,0,0,1,5.91,4c.76,2.1.16,2.87-2,2.05a6.72,6.72,0,0,1-1-.54c-7.32-4.24-13.39-2.85-18.08,4.11-2.58,3.81-5.78,7.12-9.28,11.12a20.35,20.35,0,0,0,5.72-2.69,71.91,71.91,0,0,1,14.61-7.34,6.48,6.48,0,0,1,2.11-.7,17.26,17.26,0,0,0,9.41-2.36,11,11,0,0,1,1.5,1.64c1.31,2.15.35,3.93-2.17,4.14a1.53,1.53,0,0,1-.37,0c-5.73-.89-10.62,1.37-15.53,3.91-7,3.61-13.78,7.39-19.8,12.47-.75.64-1.48,1.31-2.19,2-.15.15-.16.44-.3.88,2.11,1.15,4.27.8,6.36.11a18.75,18.75,0,0,0,4-1.93c8.12-5,17.36-6.49,26.47-8.33,2.69-.55,4,.35,4.66,3,.78,3,1.22,6.1-.41,9-.38.48-.16,1.41-.76,1.6-3.33,1-3,3.59-2.71,6.14-2.27,3.37-5.65,5.56-8.65,8.16-.76.66-1.72,1.29-2.69.59s-1-1.95-.72-3.08a7.91,7.91,0,0,1,1.63-2.91c2.43-3.31,4.94-6.55,7.62-9.66a22.28,22.28,0,0,0,2.86-3.91c.67-1.27,1-2.62.14-3.88s-2.25-.74-3.43-.46c-8.47,2-17,3.68-24.6,8.39-3.77,2.35-8,2.64-12.29,2-5.66-.83-7-4.09-3.39-8.46,8.09-9.93,16.28-19.79,24.86-29.3,1.69-1.87,2-3.52.82-5.66-1.11-1.94-2.34-3.82-3.27-5.87s-2.06-1.7-3.22-.17a25.39,25.39,0,0,1-3.73,4.16c-2.4,2-5,2.91-7.8.88-1.9-1.36-3.07-.68-4.32,1a13.49,13.49,0,0,1-12.41,5.46c-4.25-.29-6.07-2.94-4.61-6.91,1.24-3.36,2-6.95,4.24-9.9,1.06-.88,2.07-.94,3,.23.77,3-.62,5.61-1.33,8.33-.55,2.08,0,2.72,2,2.7,3.48,0,5.32-1.58,5.57-5,.4-5.51,3.91-9,7.91-12.08a3.14,3.14,0,0,1,4.43.25c1.24,1.32.73,2.78-.16,4.1-1.11,1.64-2.7,3-3.28,5-.63,2.18.33,3.15,2.49,2.53a7.89,7.89,0,0,0,4-2.66c2.55-3.08,4.5-6.57,6.81-9.81a3.52,3.52,0,0,0,.15-3.56,99.35,99.35,0,0,1-3.44-10.65c-.67-2.57-2.1-4.21-5-4.1a13.27,13.27,0,0,0-9.58-2.35,185.64,185.64,0,0,1-23.12-3.52c-6.16-1.32-11.24-9.57-10.24-15.88.44-2.8,2.25-4.62,4.69-5.86,1.55-.8,3.25-1.21,4.84-1.9,1.47-.34,2.36-2.17,4.17-1.63,4.2.57,6.34,4,9,6.65.46.47,0,1.17-.3,1.7C1664.13,181.73,1661.78,182.74,1659.31,183.61Z"/><path class="cls-1" d="M1499.42,362.17a3,3,0,0,1,1.73-1.74q3.63,1.95,7.27,3.89a23.93,23.93,0,0,1,5.17,5.27,47.22,47.22,0,0,1,6.18,7.9c2,3.46,3.7,7.12,3.72,11.17a34,34,0,0,0,3,12.95c.45,1.33.72,2.82-.15,3.92-3.17,4-2.77,8.55-2.19,13.12.24,1.88.44,3.7-.66,5.39a13.65,13.65,0,0,1-2.35,5c-1.52,2.2-2.76,4.46-2,7.29a1.37,1.37,0,0,1-1.23,1.88,1.65,1.65,0,0,1-2.13-1,15.07,15.07,0,0,1-.49-1.78,65.59,65.59,0,0,0-15-28.36,92.3,92.3,0,0,1-9.75-13.65c-2.53-4.14-5-8.33-7.68-12.35-4.41-6.54-10.35-10.5-18.51-10.95-5.27-.28-9.76-2.8-13.71-6.19a164.11,164.11,0,0,1-15-15c-3.15-3.51-6.15-7.16-9.21-10.75-.29-1.27.49-1.7,1.51-1.93,1.92.21,2.93,1.75,4.18,2.92,6.33,6,12.07,12.52,18.43,18.47,6,5.6,12.69,9.51,21,10.36,6.68.69,11,5,14.49,10.14,5.49,8.13,10.5,16.6,15.84,24.84,3.65,5.63,8.61,10.26,12.15,16.12a24.31,24.31,0,0,1,3.53-10.49c2.85-5.14,2.52-10.23,0-15.36a173.27,173.27,0,0,0-16.13-26.82C1500.36,365.16,1499,364,1499.42,362.17Z"/><path class="cls-1" d="M1702.68,505.48c-2.77,14.87-9.29,28-18.5,39.86-1.45,1.87-3,3.69-4.43,5.54-1,1.28-2,2.71-4,2-1.82-.68-2.17-2.27-2.08-4,.19-3.6.14-7.3,1.42-10.69,3.17-8.4,4.67-17.25,7.14-25.84a89.7,89.7,0,0,1,5.39-14.28,103.38,103.38,0,0,0,9.8-38c.71-9.79,1.39-19.58,2.72-29.32a43.68,43.68,0,0,0-3.32-23,47,47,0,0,0-4.85-9.6c-4.5-6.33-5.3-13.28-2.59-20.56A65.4,65.4,0,0,1,1698.1,362c1-.49,1.89-.64,2.56.41a2.26,2.26,0,0,1-.23,2.41,5.66,5.66,0,0,1-2.21,1.88c-1.09,1.94-2.16,3.91-3.28,5.84-4.83,8.33-5.16,16.69-.2,25.09,1.19,2,2.4,4.07,3.61,6.1a29.78,29.78,0,0,1,4,11.9c.62,5.17,1.78,10.27,1.17,15.56-.32,2.74-1.35,5.28-1.74,8a110.08,110.08,0,0,0-.79,14.51,68.25,68.25,0,0,1-2.42,19.18,6.81,6.81,0,0,0-.35,2.18c.22,5.14-1.48,9.71-3.6,14.29a238.24,238.24,0,0,0-15.26,45.51,50.88,50.88,0,0,0-1.73,8.38c-.1,1.47-.39,3,.61,4.57a101.57,101.57,0,0,0,15.36-23.38,78,78,0,0,0,6.53-22.46,29.36,29.36,0,0,0,0-4.09c0-2.59.1-2.66,3.17-2.2C1704.68,499.07,1703.07,502.24,1702.68,505.48Z"/><path class="cls-1" d="M1585.4,403.12c-2.08-6.49-5.5-12.33-8.81-18.22a20.6,20.6,0,0,1-2.42-4.94c-.32-1.25.27-1.61,1.4-1.45,6.1,8.27,10.37,17.5,14,27.06a27.74,27.74,0,0,0,3.44,6.56c3.34,4.63,6.33,9.49,10.7,13.33,2.61,2.31,4.21,5.5,6,8.49,8.49,14,14.19,29.24,19,44.82,1.77,5.69,3.66,11.34,5.8,16.92,1.33,3.49,1.53,7.24,1.92,11.35a11.85,11.85,0,0,1-4.37-3.66,23.82,23.82,0,0,1-4.77-8.38c-3.4-10.44-8.39-20.17-13.23-30-5.12-10.36-10.1-20.78-14.67-31.41a111.26,111.26,0,0,0-6.51-13.7c-2.21-3.68-4.58-7.09-8.19-9.5.42-1.52,2-2.7,1.28-4.56l0-.32C1585.56,404.8,1586,403.82,1585.4,403.12Z"/><path class="cls-1" d="M1429.3,208.2l-1.39,0c-1.53-1.39-.69-3-.3-4.49,1.39-5.26,3.82-10.17,4.76-14.51-3.76,6-6,13.74-8.28,21.42-.36,1.19-1,2.35.76,2.94,3,2.32,5.72,4.8,5.83,9-1,.73-1.29,2.68-3.19,1.91-.64-1.82-1.5-3.48-3.36-4.37-2.29-.77-2.39,1.28-2.93,2.45a44.61,44.61,0,0,0-3.4,13.68c-.55,4.69-1.07,9.39-2.06,14-2.88,13.45-1.86,26.92-.62,40.41.45,4.95.92,9.89,1.58,14.81a5,5,0,0,1-.45,3.26c-.25.27-.71.64-.9.33-2.46-4.05-5.88-7.74-5.21-13,1.07-1.89.75-4,.36-5.84-2.51-11.87-1.28-23.7,0-35.57.47-4.43,1.42-8.78,1.73-12a202,202,0,0,0-3.31,34.64,40.78,40.78,0,0,0,1.26,11.05c.49,1.91,1,3.88-.09,5.79-1.77.23-1-1.12-1.27-1.76.15,3.54,1.94,7.29-.45,10.86-.13-6.31-2.42-12.37-2-18.77.26-4.58-.91-9.13-.92-13.74a91.31,91.31,0,0,1,2.84-22.86A364.5,364.5,0,0,1,1430,186c1.92-4.21,4-8.32,7.45-11.49,1.06-1,2-2.33,3.71-2.14,1.26,1.43.95,3,.31,4.53-3.8,9.15-6.29,18.75-9.78,28C1431.2,206.22,1431.3,208,1429.3,208.2Z"/><path class="cls-1" d="M1607,530.82c0-.45-.09-.91-.14-1.36-.37-.76,0-1.68-.5-2.41-2.61-15.29-4.26-30.74-8.32-45.76a160.23,160.23,0,0,0-14.55-36.57,102.46,102.46,0,0,0-12.71-18.32c-7.92-8.95-15-18.5-20.2-29.37-2-4.25-3.13-8.91-5.85-12.86-.82-1.18-1-2.6.37-3.65s2.62-.3,3.64.68,2,2.2,3,3.31c.64,1.87-2.58,2.41-1.51,4.43,4.24,10.31,10.39,19.46,17.16,28.24,4.24,5.51,8.48,11,12.8,16.47,9.16,11.57,15,24.77,19.33,38.75a229.51,229.51,0,0,1,9.13,44.41c.67,6.54,1.34,13.11,4.65,19a4.25,4.25,0,0,1,.46,1.41c.24,1.5-.42,2.1-1.91,1.73a6.08,6.08,0,0,1-2.58-1.42C1607.77,535.56,1607.61,533.12,1607,530.82Z"/><path class="cls-1" d="M1604,583.78c2.31-1.1,4.86-1,7.29-1.23,7.16-.73,14.36-1.23,21.55-1.61,8.19-.44,16.3-1.87,24.51-1.94,4,0,8-.31,11.93-.33,15.16-.08,30.3-1.62,45.48-.72,10.8.65,21.58,1.56,32.4,1.52a3.92,3.92,0,0,1,2.49.63,3.57,3.57,0,0,0,2.07.71c7.34.21,9.26.68,8.89-8.08a66.83,66.83,0,0,1,.35-9.29c.14-1.56.56-3.1.95-5.15a11.44,11.44,0,0,1,1.94,6.72c.12,4.23,0,8.46.11,12.68,0,1.61.19,3.22.35,4.83.27,2.8-.51,3.61-3.39,3.1-4.53-.8-9-1.67-13.53-2.65a71.68,71.68,0,0,0-14.08-1.2c-16.16-.32-32.32-1.1-48.49-.6-12.92.4-25.86.3-38.76,1.28-8.91.68-17.81,1.59-26.72,2.45a119.24,119.24,0,0,1-14.52.39A1.92,1.92,0,0,1,1604,583.78Z"/><path class="cls-1" d="M1656.55,170.72c-1.33.48-2,2-3.37,2.32-3.1-5.61-8.48-8.94-13.14-12.94a143.24,143.24,0,0,0-26.74-18.21,75.12,75.12,0,0,0-27.76-7.93c-6-.58-12.09,1.1-17.66,3.79-7.71,3.73-15.37,7.58-22.44,12.48a6.14,6.14,0,0,1-4.11,1.49c-1.88-.87-2.5-2.49-2.65-4.4,1.57-5.14,5.65-8.28,9.39-11.66a41.74,41.74,0,0,0,4.16-3.68c4.5-5.36,10.21-7.49,17.14-7,3.44.26,6.92-.05,10.38.08,2.84.1,5.71.3,8,2.29.58,2-.82,2.52-2.25,2.42-5.81-.41-11.65.88-17.45-.26a10.66,10.66,0,0,0-7.83,1.72c-3.79,2.36-7,5.48-10.84,8.68a4.39,4.39,0,0,0,3.25-.49c5.37-2.26,10.77-4.5,16-7a30,30,0,0,1,16.32-2.5,10.14,10.14,0,0,0,5.44-.63c3.37-.58,6.2,1.21,9.19,2.2,3.15,1,6.18,2.42,9.47,3,1.33-.23,2.67-.46,3.85.5,1.91,3.34,5,5.32,8.21,7.21A145.16,145.16,0,0,1,1656.55,170.72Z"/><path class="cls-1" d="M1527.15,406c2,1.57,2.71,3.86,2.86,6.23,1.06,17.13,1.17,34.24-2,51.2-1.49,8-4.85,15.35-8.54,22.54a177.2,177.2,0,0,1-19.63,29.78,8.69,8.69,0,0,1-1.52,1.62Q1487.71,525.23,1477,533c-1.22.32-1.58-.23-1.37-1.36,3.86-3.12,7.73-6.23,11.58-9.38q3.16-2.6,6.24-5.31c7.13-6.29,13.28-13.29,17.61-21.93,4.45-8.88,9.51-17.45,12.4-27a68,68,0,0,0,2.83-17.59c.15-5.09.61-10.17.81-15.26a36.43,36.43,0,0,0-.8-11.11c-2-5.49-1.14-11.11-.7-16.69A1.39,1.39,0,0,1,1527.15,406Z"/><path class="cls-1" d="M1535.33,524.85c.19,4.42,1.39,6.13,5.42,7.28,1.91.55,3.91.78,5,2.79.44.8,1.3.57,2,.57a18.21,18.21,0,0,1,6.52,1.38c16.4,6.41,31.91,14.38,45.31,26a21.43,21.43,0,0,1,1.68,1.46,1.73,1.73,0,0,1,.23,2.37,1.61,1.61,0,0,1-2.34.18,12.49,12.49,0,0,1-1.45-1.16c-13.08-12-28.58-19.6-45.21-25.2-3.61-1.21-7.06-2.85-10.84-3.69-3.53-.79-6.34-3.29-9.32-5.29-.41-1.86.49-3.55.73-5.32C1533.25,525.13,1533.83,524.08,1535.33,524.85Z"/><path class="cls-1" d="M1535.33,524.85c-1.53.11-1.64,1.25-1.55,2.37a5.8,5.8,0,0,1-1.42,4.34,93.32,93.32,0,0,1-10.95-1.93,23.55,23.55,0,0,0-11.07-.21,59.35,59.35,0,0,0-17.23,6.89,24.32,24.32,0,0,0-4.62,3.72,2.82,2.82,0,0,1-1.88-1.87c3.17-4.23,7.49-6.73,12.43-8.31,3.36-1.08,6.41-3.39,10.24-2.63,2.11,1.21,4.35.34,6.48.24,3.27-.14,6.55.92,9.79-.18l5.7,1c.79-1,.31-2,.34-3,.09-3.38,1.76-5.87,5.05-6.42,6.48-1.08,12.92-2.5,19.5-2.78,4.74-.2,9.31,1.22,13.93,2a3.06,3.06,0,0,1,2.49,1.59c-1.86,1.72-3.91,1.19-5.87.55-10.5-3.43-20.28-1-29.82,3.53A11,11,0,0,0,1535.33,524.85Z"/><path class="cls-1" d="M1715.27,285.73c-1.62-3.92-1.61-3.9,2.17-5.94a10,10,0,0,0,1.61-1.39c.36.69,1,.61,1.6.53,3.27-.45,5.77.93,7.94,3.21,2.65,2.78,5.37,5.5,8,8.33,7.94,8.6,10.63,18.82,9.18,30.28-.74,5.86-3.53,10-9.57,11.33-1.13-.44-2.6-.26-3.12-1.76a1.31,1.31,0,0,1,.36-.64c8.6-6.85,10.77-15.68,6.36-26.28-2.67-6.43-7.18-11.59-11.93-16.51-2.71-2.82-6.09-3.74-9.84-1.65C1717.21,285.69,1716.33,286.43,1715.27,285.73Z"/><path class="cls-1" d="M1621.23,365.64l-1.59,1.75c-15-3.64-29.26-9.24-43.68-14.5a66.11,66.11,0,0,1-21.82-13.16c-.83-.74-1.46-2.2-3.06-1.49-.68-1.24-.2-2.26.62-3.21,1.53-.31,2.58.68,3.66,1.46,1.51,1.09,3.13,2.05,4.55,3.24,8.18,6.87,17.84,10.45,28,13.28,10.52,2.93,20.71,6.9,31,10.63C1619.85,364,1621.12,364.18,1621.23,365.64Z"/><path class="cls-1" d="M1486.61,538.16a1.92,1.92,0,0,1,1.88,1.87A26.37,26.37,0,0,1,1474,552.14c-14.17,5.08-25.1,14.31-33.76,26.42a57.35,57.35,0,0,1-6.21,6.91c-.76.6-1.25,1.59-2.39,1.63a2.43,2.43,0,0,1-1.72-1c0-1.61,1.23-2.32,2.39-3.06a148.41,148.41,0,0,0,9.6-11.33c5.31-7.21,12.23-12.59,20-16.9a94.84,94.84,0,0,1,13.13-6.11,14.55,14.55,0,0,0,6.93-5.37C1483.29,541.45,1484.45,539.35,1486.61,538.16Z"/><path class="cls-1" d="M1498.15,353a12.55,12.55,0,0,1-6.94-7.64c-2.18-5.9-5.09-11.51-6.18-17.8a23.75,23.75,0,0,1-.38-6.62l1.54-.72c2.14.57,2.13,2.59,2.58,4.14,1.46,5,3,10,4.41,15,1.74,6.35,5.64,10.33,12.24,11.52,7.66,1.38,15.28,2,22.87-.38a1.33,1.33,0,0,1,1.11.34c.11.48.21,1,.33,1.43.58,2.25.44,2.55-1.78,2.93-8.34,1.45-16.63,2.18-24.76-1.18A11.8,11.8,0,0,0,1498.15,353Z"/><path class="cls-1" d="M1604,583.78a1.61,1.61,0,0,1,.82,1.51l-2.84.12c-3,.82-6.11-.27-9.09.61l-4.33.15c-2,.72-4.13-.15-6.13.52-4.1.1-8.2.27-12.3.28a192.82,192.82,0,0,0-21.2,1.28c-13.36,1.54-26.8,1.54-40.23,1.69-2.74,0-5.47,0-8.21,0a7.93,7.93,0,0,1-4.25-.11c1.18-1.83,3-.67,4.06-1.4,7.94-.38,15.91,0,23.84-.83,5.93-.63,11.89-1,17.81-1.71,6.2-.72,12.42-.12,18.61-.68a38.88,38.88,0,0,1,9.46,0h3.93c2-.64,4.22.27,6.24-.56l2.12-.12c5.28-.67,10.59-.09,15.89-.3,1.46-.06,3,.29,4.39-.29Z"/><path class="cls-1" d="M1500.25,588.45c-.84.82-2.07.35-3.69,1.06l3.88.45c-7,.77-14,1.65-21.07,1.54-16.24-.26-32.47-.65-48.66-1.86-.67-1.22-.13-2.06.89-2.75.7-.63,1.17-1.65,2.39-1.42,1.9,2.39,4.58,2.75,7.37,2.77l41.39.18C1488.58,588.44,1494.42,588.44,1500.25,588.45Z"/><path class="cls-1" d="M1725.85,506.84a79.27,79.27,0,0,1,23,16.22c6,6.29,10.48,13.49,12.46,22.08.6,2.55,1,5.1-.51,7.6-1.14-.49-1.28-1.49-1.52-2.38a13.91,13.91,0,0,1-.75-3.25c-.2-7.3-4-12.86-8.48-18.15a85.12,85.12,0,0,0-22.29-18.41l-3.5-2.11C1723.63,506.74,1724.32,506.37,1725.85,506.84Z"/><path class="cls-1" d="M1575.57,378.51a2.5,2.5,0,0,0-1.4,1.45c-2.62-2.38-4.22-5.5-6.06-8.44s-3.79-5.53-7-6.91c-1.08.35-1.2,1.32-1.58,2.06-2.16,4.18-5.58,6.3-10.27,6-6.45-.38-12.68-2-18.88-3.46,0-1.5,1-1.2,1.64-1.29a28.07,28.07,0,0,1,11,1,18.73,18.73,0,0,0,6.65.55,9.55,9.55,0,0,0,8.69-9.71c1.56,1.49,2.32.23,3.12-.9.79.94,1.51,1.95,2.38,2.82A65.84,65.84,0,0,1,1575.57,378.51Z"/><path class="cls-1" d="M1698.22,366.73c.13-.94.92-1.43,1.41-2.12,1.17-1.67,1-2-1.53-2.58,2.7-1.17,3.05-1.09,3.88,1a17.09,17.09,0,0,1,.54,1.76c.12.46.22.93.56,2.33,4.49-10.62,12.27-18.14,18-27-.81-.67-1.46-.26-2-.42,2.1-2.79,4.42-3,7.48-.76-3.12,3.86-6.25,7.7-9.34,11.58a69.42,69.42,0,0,0-10.59,17.42,7.19,7.19,0,0,1-1.29,2.23c-2.23,2.41-4.76,1.85-5.82-1.24C1699.21,368.07,1699.08,367.19,1698.22,366.73Z"/><path class="cls-1" d="M1475.66,531.66A3,3,0,0,0,1477,533c-13.43,10.88-26,22.78-39,34.16a10.49,10.49,0,0,1-1.3.76c-.08-3.14,1.54-5.08,3.47-6.79,2.89-2.55,5.93-4.91,8.75-7.54,6.09-5.68,11.76-11.82,18.49-16.79A41.85,41.85,0,0,1,1475.66,531.66Z"/><path class="cls-1" d="M1550.21,388.94c-1.39-.77-1.76-1.71-.33-2.76.68-.5,1.53-.78,1.84-1.67q14.68,10.2,29.35,20.4c1.48,1,3.07,1.66,4.9,1,.42.87.85,1.74,1.27,2.63-.76.84-2.17.73-2.55,1.93-11-6.78-22.59-12.85-32.25-21.69C1551.62,388,1550.82,387.4,1550.21,388.94Z"/><path class="cls-1" d="M1561.57,358.91c-.22,2.42-.22,2.42-1.63,4.43-1.12-1-.1-2.83-1.49-3.53-2.43-3.83-5-7.53-6.37-12-.9-2.86-3-5.36-4.48-8s-3-5.08-3.47-8.08c.49-1.11-.53-2.95,1.6-3.25a16.84,16.84,0,0,1,6,6.81c.35,1.12-.63,1.95-.64,3a4.51,4.51,0,0,0,1.05,3.44c1.86,2.13,3,4.72,4.88,6.88A22.4,22.4,0,0,1,1561.57,358.91Z"/><path class="cls-1" d="M1410.72,296.19a7.67,7.67,0,0,0,1.08,4.6c1.36,2.74,2.65,5.51,4,8.26a2,2,0,0,1,.75,1.2c.94,1.69,2.85,2.95,2.33,5.28-1,3.3.44,6.47.54,9.72-.29,1.57-.55,3.16-2.69,3.12-2.51-1.74-4.14-4.11-3.85-7.19.64-6.6-1.29-12.46-4.53-18,.62-3.75-.17-7.53,0-11.62,1.12.77.61,2.07,1.42,2.61A1.69,1.69,0,0,1,1410.72,296.19Z"/><path class="cls-1" d="M1613,135a7.31,7.31,0,0,0-3.83.65,62.59,62.59,0,0,0-14.6-23c-2.44-2.54-4-5.81-7.14-7.89a4.75,4.75,0,0,1-2.11-4.85,1.6,1.6,0,0,0,.81-1.5C1597.53,108.83,1607.92,120,1613,135Z"/><path class="cls-1" d="M1607,530.82c2.25,1.75,1.92,4.35,2.24,6.74a20.37,20.37,0,0,1-5.55-2c-7.44-3.41-14.65-7.31-21.89-11.13-.72-.38-1.4-.85-2.59-1.58a12.93,12.93,0,0,1,8.14,1.16c5.12,2.24,10,4.94,14.87,7.67C1604.86,533.1,1604.79,533.22,1607,530.82Z"/><path class="cls-1" d="M1726.53,338.9a7.75,7.75,0,0,0-7.48.76c-2.24,1.2-4,3.16-6.61,3.78-.62,0-1.24,0-1.85-.13-1.95-.28-2.16-1.33-1.24-2.87a2.11,2.11,0,0,1,1.33-.82,9.61,9.61,0,0,0,2.52-.74c5.33-2.1,10.15-5.21,15.33-7.6,1.41-.65,2.79-1.8,4.51-.76,1.17.26,2.6,0,3.14,1.56Z"/><path class="cls-1" d="M1513.5,326.33a1.7,1.7,0,0,0,1.77-1.77c2.44,2.5,5.68,3.49,8.87,4.4q7,2,13.73,4.58a5.62,5.62,0,0,1,3.56,3c-.53,1.1-1.23,1.93-2.61,1.82-5.79-3-12.13-4.27-18.35-6C1517.31,331.5,1513.82,330.65,1513.5,326.33Z"/><path class="cls-1" d="M1725.85,506.84c-.95.11-1.69.43-1.59,1.6a69.92,69.92,0,0,1-13.19-5.9c-1.41-.77-2.84-1.52-4.31-2.17-2-.89-2.43-.7-2.72,1.37-.19,1.37-.32,2.7-1.36,3.74a28,28,0,0,1,.69-9.77c6,1.63,11.34,4.84,16.77,7.75C1722.09,504.51,1724,505.71,1725.85,506.84Z"/><path class="cls-1" d="M1538.89,338c1-.26,1.38-1.52,2.54-1.45a21.19,21.19,0,0,1,1.6,1.54c.74.89.38,1.62-.5,2.13a7.83,7.83,0,0,1-1.72.72,17.07,17.07,0,0,0-11.41,9.93l-.74,0c-2.59-2.85-2.45-6.72.72-8.9A20.77,20.77,0,0,1,1538.89,338Z"/><path class="cls-1" d="M1513.59,369.59a9.27,9.27,0,0,1-5.17-5.27c6.09.56,12.18,1.19,18.64,2-2.25,3.14-4.91,2.73-7.44,2.21a16.87,16.87,0,0,0-4.4-.57A1.52,1.52,0,0,0,1513.59,369.59Z"/><path class="cls-1" d="M1432.27,583.05a5.37,5.37,0,0,1-2.34,2.94c-1.11,1.11-2.34,1.57-3.81.69,1-2.77,2-5.55,3-8.3a11,11,0,0,1,5.81-6.57c.57,2.46-1,3.89-1.85,5.55S1430.74,580.89,1432.27,583.05Z"/><path class="cls-1" d="M1659.31,183.61l5.91-4.54a9.73,9.73,0,0,0,2,6.25,7.06,7.06,0,0,1,1.2,4.2c0,.72.11,1.59-.7,1.94-1,.44-1.69-.33-2.17-1a23.46,23.46,0,0,1-1.87-3.18C1662.68,185.47,1661.54,183.92,1659.31,183.61Z"/><path class="cls-1" d="M1416.7,328.37c1.3-.54,1.46-1.92,2.13-2.91a21.41,21.41,0,0,1,9.16,11.05,3.08,3.08,0,0,0-1.7,1.66C1423,335,1419.06,332.46,1416.7,328.37Z"/><path class="cls-1" d="M1525.55,527.28c-.2,1.07-1,1.32-1.92,1.31-4.09,0-8.18-.09-12.26-.1a2.2,2.2,0,0,1-2.09-1.27c.49-.08,1-.14,1.45-.25A26.86,26.86,0,0,1,1525.55,527.28Z"/><path class="cls-1" d="M1426.12,586.68a12.38,12.38,0,0,1,3.81-.69c.66.11,1.32.21,1.67.9-.3.92-.6,1.84-.89,2.75-1.81,1-3.42,2.48-5.54,2.92-1,.21-1.34-.29-1.1-1.25.71-1.41-.41-3.44,1.51-4.44A2.9,2.9,0,0,1,1426.12,586.68Z"/><path class="cls-1" d="M1425.58,586.87c-.5,1.48-.43,3.16-1.51,4.44.12-1.39-.64-2-1.91-2.24l-4.41-.72a9.83,9.83,0,0,1-4.83-2,9.93,9.93,0,0,1,4.15-.27c1.49,0,3,.07,4.47.22S1424.24,586.66,1425.58,586.87Z"/><path class="cls-1" d="M1602.54,583.93a2.08,2.08,0,0,1-1.66.67l-18.62-.08c2.38-.91,4.87-.58,7.32-.62C1593.9,583.82,1598.22,583.91,1602.54,583.93Z"/><path class="cls-1" d="M1592.84,586c3-1.39,6.05-.58,9.09-.61C1599,586.35,1595.88,586.06,1592.84,586Z"/><path class="cls-1" d="M1570,585.2a67.88,67.88,0,0,1-9.46,0A20.57,20.57,0,0,1,1570,585.2Z"/><path class="cls-1" d="M1580.14,584.64c-2,1.28-4.14.57-6.24.56A13.75,13.75,0,0,1,1580.14,584.64Z"/><path class="cls-1" d="M1582.38,586.69c2-1.22,4.07-.56,6.13-.52C1586.52,587,1584.45,586.76,1582.38,586.69Z"/><path class="cls-1" d="M1606.37,527.05a2.28,2.28,0,0,1,.5,2.41A2.31,2.31,0,0,1,1606.37,527.05Z"/><path class="cls-1" d="M1585.4,403.12a2.09,2.09,0,0,1,.61,2.43A3,3,0,0,1,1585.4,403.12Z"/><path class="cls-1" d="M1606.27,194.71c-11.55,1.62-19.71,8.29-26.09,17.58-1.47,2.15-2.79,4.42-4.17,6.63-1.48,2.37-3.59,4-6.37,4-2.44,0-3.92,1.31-5.34,2.92s-2.78,3.19-4.16,4.78c-.83,1-1.69,1.94-3.15,1.46-1.77-.58-1.33-2.12-1.42-3.44a17.17,17.17,0,0,1,1-5.86c.54-1.94.88-3.86-.11-5.59-.58-.38-.88-.19-1.12.1-4.33,5.14-8.71,10.23-13,15.44a53.53,53.53,0,0,0-8.66,14.3c-.82,2.09-1.73,4.11-.87,6.46.4,1.08-.2,2.2-.51,3.27a4.08,4.08,0,0,1-2,.72c-2-3.89-3.85-7.82-5.46-11.87-.07-2,1.37-2.5,2.52-1.58,2.65,2.11,3.85.75,5-1.51,1.87-4.91,5-9.08,8.18-13.14,4.55-5.71,9.77-10.82,14.76-16.13a34.35,34.35,0,0,0,6.88-9.55c1.73-1.18,4.22.75,5.7-1.4,7.54-6,15.6-11,25.21-12.95,1.34.06,2.77-.16,3.68,1.21-.24,2.39-2.28,2.7-4,3.34a101.77,101.77,0,0,0-24.52,13.27c-5.43,4-6.85,9.36-7.53,16a50,50,0,0,0,16.61-13.6c2.82-3.63,5.31-7.52,8.83-10.57,6.76-5.85,14.45-8.58,23.44-7,.84.43,1.9.62,1.9,1.94C1609.87,195,1607.9,193.79,1606.27,194.71Z"/><path class="cls-1" d="M1538.32,265.74c4.77-7.15,9.78-14.22,17.34-18.6,5.25-3,10.33-6.37,15.68-9.24,4.25-2.29,8.52-4.59,11.93-8.14,2.25.42,4.68.15,6.65,1.69-5.09.64-9,3.67-13.16,6.32a74.4,74.4,0,0,1-14,7.56,18.31,18.31,0,0,0-5.21,3.51,153.89,153.89,0,0,0-19.07,19.22Z"/><path class="cls-1" d="M1536.71,274.07c-3,.25-4.51,2.56-6.07,4.53a45.43,45.43,0,0,0-7.22,13.39c-1.47,4.22-.73,8.32.75,12.36-1.87,2.1-1.89,2.11-3.13-.15a2.59,2.59,0,0,0-1.36-1.13c-1.38-11.52,3.91-20.58,10.77-29,1.5-1.84,2.91-3.69,3.37-6.09Q1535.26,271,1536.71,274.07Z"/><path class="cls-1" d="M1484.49,320.32c-1-1.15-.59-2.53-.62-3.84C1485,317.61,1484.5,319,1484.49,320.32Z"/><path class="cls-1" d="M1538.46,269.32a2.64,2.64,0,0,1,.44,2.41A2.19,2.19,0,0,1,1538.46,269.32Z"/><path class="cls-1" d="M1528.67,146.26c-.93-1.06-1.85-.89-2.77,0a7.1,7.1,0,0,1-3.24,2.19,1.84,1.84,0,0,0-1.66-1.71c2.57-2.83,5-5.8,9.1-6.53C1532.48,143.5,1532.14,145,1528.67,146.26Z"/><path class="cls-1" d="M1686.1,201.45c-.57,5.78-3.38,10.2-8.62,12.6a22.38,22.38,0,0,0-12.2,12.82,1.9,1.9,0,0,0-2.13,0c.18-1,.42-1.92.56-2.89.73-5.07,3.34-8.67,8.16-10.6,3.64-1.47,6.43-4.11,9.15-6.84a6.4,6.4,0,0,0,1.65-2.85c.72-2.55,0-3.71-2.7-3.89-1.38-.09-2.72-.13-3.79-1.15C1679.91,198.09,1683.35,198.54,1686.1,201.45Z"/><path class="cls-1" d="M1516.52,381.34c-3.13-2.74-3.76-3.8-4.64-7.59C1514.73,374.85,1515.92,376.72,1516.52,381.34Z"/><path class="cls-1" d="M1619.79,469.53c1.86.15,1.33-1.29,1.51-2.26a65.4,65.4,0,0,1,5.23,13.83c.65,2.51,1.68,4.91,2.52,7.37.37,1.07-.11,1.68-1.16,1.83-.84.12-1.47-.19-1.54-1.14C1625.8,482.07,1621.79,476.13,1619.79,469.53Z"/><path class="cls-1" d="M1427.88,224.76c-2.32,7.92-4.76,15.8-6.35,23.94-1.32-4.22-1-8.48-.25-12.64,1-5.34,2.35-10.6,3.56-15.9C1427.65,220.75,1427.65,220.75,1427.88,224.76Z"/><path class="cls-1" d="M1521.77,175.12a48.64,48.64,0,0,0,11.28-18.84,16.49,16.49,0,0,1,6-8.57l2.21,3.66c-.86,1.84-2.82,2.78-3.76,4.55-.32.62-1,1.31-.21,2a1.9,1.9,0,0,0,2.11,0c1.16-.59,1.64-1.83,2.54-2.67,1.54-1.42,2.94-1.4,4.17,0a1.15,1.15,0,0,1-.1,1.88c-3.33,3.07-6.62,6.18-9.92,9.27-.28,2.25-2.66,2.32-3.8,3.69a79.64,79.64,0,0,0-7.49,8.8C1521.64,178.88,1521.28,178.43,1521.77,175.12Z"/><path class="cls-1" d="M1416,310.47c1.44-.06,2.11-1.06,2.77-2.16,2.1-3.51,4.32-6.94,6.36-10.49,3.1-5.41,7.14-10.12,10.93-15,3.63-4.69,7-5.31,12.46-3a34.08,34.08,0,0,1,6.16,3.43c3.51,2.44,3.66,2.39,5.83-1.33,1.28,3.21.69,4.34-3.63,7-2.65-1.83-5.29-3.67-8-5.48-3.17-2.15-6.25-2-9.28.38a31.91,31.91,0,0,0-8.67,9.56c-4.08,7.36-8.14,14.76-12.74,21.83a3.55,3.55,0,0,0-1.78-3.25C1416,311.68,1415,311.33,1416,310.47Z"/><path class="cls-1" d="M1710.64,340.28a3.2,3.2,0,0,1,2.43-.56A2.08,2.08,0,0,1,1710.64,340.28Z"/><path class="cls-1" d="M1531.64,169.44c1-1.68,3.44-1.36,4.46-3.05a2.07,2.07,0,0,0,.69,1.64c2.83,2.36,2.85,5.39,1.79,8.51q-3.27,9.51-6.74,19c-2.4,6.53-4.8,13.06-7.43,19.5-2.32,5.69-2.31,11.08,1,16.38,1.94,3.12,2.31,6.79,3.23,10.26.73,2.73,1.17,2.81,3.67.87a4.85,4.85,0,0,1-.15,1.08c-1.28,3.82-1.32,3.86-4.51,1.31-1.38-1.1-2.16-.68-2.81.7-4.38-6.86-7.19-14.18-6.6-22.49a9.32,9.32,0,0,0-1.65-5.27c-2.55-4.48-2.76-9.08-1.66-14s2.39-9.65,3.51-14.49a10.53,10.53,0,0,0,.45-1.8c.08-1.38-.94-2.16-2.17-1.56a23.94,23.94,0,0,0-3,2.11c-1.82-.79-3.17-2.07-2.88-4.16.35-2.46,2.23-3.63,4.47-4.26,1.53.06,2.46-.93,3.45-1.89s1.69-2.15,3-2.63c.47,3,.8,3.4,3,3.18,1.4,1.74.13,3.34-.38,4.88-2.55,7.67-5.1,15.32-6.3,23.35a9.37,9.37,0,0,0,1.68,7.6c1.53-1.93,1.91-4,2.56-6,3.63-10.71,8.24-21,11.85-31.77C1535.26,173.13,1534.83,170.91,1531.64,169.44Z"/><path class="cls-1" d="M1589.92,231.45c-2.29-.3-4.89.68-6.65-1.69.32-3.23,2.22-5.61,5.6-5.61,4.28,0,7.55-1.86,11-4,6.92-4.26,14.58-6.8,22.36-9,.72-.2,1.42-.45,2.13-.68,1.26-1.23,2.59-2.13,4.33-.81,2.12,2.31,2.23,3,0,4.17a8.58,8.58,0,0,0-4,4.71,8.36,8.36,0,0,1-7.51,5.65c-5.55.64-10.79,2.72-16.1,4.41A67,67,0,0,1,1589.92,231.45Z"/><path class="cls-1" d="M1624.14,187.13c-8.56-1.39-16.68.6-24.72,3.21-.92.3-1.74,1-2.81.76-1-1.45-2.6-.51-3.88-.88.21-1.75,1.81-1.9,3-2.45a57.43,57.43,0,0,1,20.81-5.21c1.13-.08,2.82.45,3-1.29.18-1.53-1.16-2.39-2.46-2.92a8.09,8.09,0,0,0-5.83.05c-7.44,2.57-15.26,3.24-22.91,4.78-8,1.61-15.17,4.85-19.26,12.56-1.22,2.29-2.55,4.66-.86,7.33-1.77,2.68-4,.83-6.07.61a31.78,31.78,0,0,1,5-13.12,21,21,0,0,1,13.07-9.25q16.85-4,33.74-7.87c4.66-1.05,7.46.68,8.73,5.21.47,1.67.77,3.36,1.91,4.79C1625.56,184.71,1625.08,186,1624.14,187.13Z"/><path class="cls-1" d="M1628.66,209.71c-1.57-.41-2.9.48-4.33.81.93-4-.54-7.24-3.5-9.88-2.6-2.31-5.76-3.79-8.74-5.51-1.77-1-3.89,0-5.82-.42,1.29-1.31,3-.39,4.46-.85,0-.92-1.27-.51-1.48-1.26,4.12-.57,7.23,1.73,10.47,3.66.82,1.45,2.23,2.3,3.44,3.34,2.72,2.33,4.94,4.9,4.89,8.78C1628.05,208.82,1628.45,209.27,1628.66,209.71Z"/><path class="cls-1" d="M1456.9,288.9c-.05-1.21,1-1.61,1.71-2.19a4.37,4.37,0,0,0,1.92-4.78,120.37,120.37,0,0,1,13.86-41.75c2.82-5.1,5.34-10.35,8.13-15.47,4.53-8.32,9.72-16.15,16.87-22.51a17.81,17.81,0,0,0,1.48-1.64,2.64,2.64,0,0,1,2.34.91c-4.3,4.67-7.77,10-11.41,15.14-12.12,17.2-21.28,35.78-26.26,56.3a130.63,130.63,0,0,0-2.65,13.88,2.33,2.33,0,0,1,0,.37c-.36,1.52-.18,3.53-2,4S1457.92,290.16,1456.9,288.9Z"/><path class="cls-1" d="M1503.21,201.47c-.87-.06-1.83.09-2.34-.91,7.87-17.84,16.12-35.49,26.44-52.08l1.36-2.22c3.08-1.39,1.93-3.78,1.43-6,.23-.7.91-.79,1.45-1,1-.47,2.22-.78,3.13.09s.59,2.08.18,3.15a18.12,18.12,0,0,1-1.08,2.37q-8.17,14.2-16.41,28.38a17.23,17.23,0,0,1-1.95,2.71,2.83,2.83,0,0,0-.14,3.73c-.41,1-1.29,1.37-2.06,2-2.32,1.77-2.38,2.8-.33,4.91a2.84,2.84,0,0,1,.8,1.55c-1.47,2.58-2.9,5.18-4.41,7.74S1506.18,200.6,1503.21,201.47Z"/><rect class="cls-2" width="1844" height="834.67"/></g></g></svg>