<svg xmlns="http://www.w3.org/2000/svg" viewBox="0 0 1844 834.67"><defs><style>.cls-1{fill:#d6d6d6;stroke:#fff;}.cls-2{fill:none;}</style></defs><title>Recurso 9</title><g id="Capa_2" data-name="Capa 2"><g id="Capa_1-2" data-name="Capa 1"><path class="cls-1" d="M1555.73,329.16c1.51,2.22,3.63,3.87,5.4,5.85a2.29,2.29,0,0,1-2.11,1.89c-4.69-1.67-7.41-5.66-10.55-9.12a53.51,53.51,0,0,1-5.64-8.31,9.58,9.58,0,0,0-8.58-5,16.43,16.43,0,0,1-3-.31c-5.55-1.07-6.89-3-5.83-8.56a75.17,75.17,0,0,0,1.76-12.88c.06-4.06,2.3-6.41,7-6.79a25.49,25.49,0,0,0,11.13-3.71c3.25-1.91,6.74-2.4,10.31-.56,2.33,1.2,4.8,1,7.28.43a139.49,139.49,0,0,0,16-4.9,2.69,2.69,0,0,1,2.53,1.09,1.6,1.6,0,0,0,2.52.14c4.77-3.12,9.33-6.52,14.07-9.68,3.91-2.62,4.27-3.85,2.37-8a116.56,116.56,0,0,1-4.53-11.77c-.81-2.15-1.81-4.22-2.82-6.29-1.36-3.42-3.06-6.74-3.18-10.53a2.5,2.5,0,0,1,2.47-1.09,4.57,4.57,0,0,1,2.69,3.31,11.43,11.43,0,0,0,3.65,5.81,5,5,0,0,1,.51,2.12c0,.53,0,1.06,0,1.59a7,7,0,0,0,.46,2.53,70.3,70.3,0,0,0,4.93,12.07c1.21,2.44,2.41,3.11,4.81,1.28,17.72-13.49,37.07-24.59,55.12-37.61,3.33-2.39,7.08-4.14,10.23-6.82,2.09-1.79,4.2-1.36,6,.54,7.35,8,15.5,15.26,20.79,25.1s12.75,18,19.85,26.51c6.39,7.63,12,15.89,18.12,23.7,7.83,9.93,17,18.09,28.89,22.8a3.06,3.06,0,0,1,.91.64c.39,1.73,1.94,2.4,3.13,3.4a67.42,67.42,0,0,0-6.39,2.83,69.47,69.47,0,0,1-16.46,5.8,250.17,250.17,0,0,0-40,12.82c-5.62,2.29-11.33,4.48-17.47,5-4.4.37-8.65-.09-12.5-2.5-.35-1.3.7-1.6,1.48-2.08a6.3,6.3,0,0,1,3.31-.07,33.54,33.54,0,0,0,19-2.34c15.08-6.67,30.85-11.19,46.85-15a74,74,0,0,0,14-5c-1.77-1.89-3.91-2.2-5.75-2.94a26.36,26.36,0,0,1-11.41-8.07c-12.88-16.29-26.44-32-39.27-48.36-6-7.62-10.71-16.18-16.77-23.78-3.81-4.79-8.42-8.78-12.62-13.18a2.24,2.24,0,0,0-3-.5,11.66,11.66,0,0,0-1.27.78c-19.24,13.95-39.61,26.24-58.89,40.12a46.55,46.55,0,0,1-4.62,3.16c-2,1.13-3.29,2.28-2.29,5,.7,1.91-.63,3.12-2.66,3-3.85-.29-6.54,2-9.4,4-1.53,1-2,2.38-.33,3.6,7.82,5.68,8.22,14.58,10,22.87-.64,1.06-.73,2.46-1.93,3.19-1.55-2.73-2-5.81-2.81-8.78a56.54,56.54,0,0,0-2.93-8.78,16.13,16.13,0,0,0-9-8.4,1.83,1.83,0,0,0-2.31.26c-4.45,4.24-9.93,6.38-15.78,7.79a11.76,11.76,0,0,0-1.6.69c1.9,3.44,3.73,6.76,5.55,10.08.6,1.28,0,1.91-1.2,2.16-2.06-.11-2.83-1.77-3.75-3.2a62.55,62.55,0,0,0-3.46-5.25c-2.57-3.23-5.62-4.73-9.72-3a10.74,10.74,0,0,1-5.11.63c-3.09-.25-5,1-5.46,4.1a2,2,0,0,1-1.86,1.13,2,2,0,0,1-.72-.81c-.47-1.1-.16-2.44-1-3.4-2.57.36-4.25,3-4.05,6.5.09,1.73.72,3.41.57,5.17-.1,1.08,0,2.51-1.33,2.75-1,.19-1.66-.91-2.16-1.78-2.11-3.67-2.65-7.42-.75-11.38.36-.77,1.45-1.85.21-2.57a1.74,1.74,0,0,0-2.39,1.19c-1.06,5.16-3.06,10.24-2.07,15.63.31,1.67,1.8,2.6,3.34,3.28,2.06.92,2.51-.65,3.24-2s1.72-1.25,2.83-.48a11.69,11.69,0,0,1,3.2,3.59C1547.34,317.54,1550.59,324,1555.73,329.16Z"/><path class="cls-1" d="M1504.16,148.41c4.26-8.83,8.77-17.55,12.68-26.53a134.81,134.81,0,0,1,12.47-22c1.42-2.09,3.39-3.06,5.77-2.15,1.65.63,2.52,0,3.48-1.07s2.1-2.13,3.08-3.24c10.06-11.37,22.59-19.39,36-26.06a72.36,72.36,0,0,1,41.27-7.08,47,47,0,0,1,27.15,12.75c.67.88.29,1.42-.57,1.81a4.28,4.28,0,0,1-3.1-1c-18-12.46-37.05-12.88-56.88-5.27A98.7,98.7,0,0,0,1551.7,89.9c-5.7,5.52-12.4,10-17,16.69a3.52,3.52,0,0,1-3.85,1.74c-1.47-.41-1-1.76-1-2.53-10.12,17.15-17.79,35.79-25.7,54.3q-4.17,9.79-8.19,19.64a26.94,26.94,0,0,0-1.63,16.68c1.9,8.59,2,17.48,1.87,26.32-.09,5-.17,9.95.09,14.93.06,1,.12,2.28,1.18,2.53s1.54-1,2-1.86a32.74,32.74,0,0,0,2.81-6.49,222.44,222.44,0,0,1,42.51-74.37c9.7-11.2,19.72-22.06,30.32-32.39,1.76-1.72,3.57-3.5,6.12-4.1a1.7,1.7,0,0,1,1.83,1.87c-.23,1.51-1.51,2.22-2.46,3.16-17,16.66-33.19,34-46.49,53.86A250.75,250.75,0,0,0,1507,233.77a78.6,78.6,0,0,1-4.58,9.79c-1.28,2.41-3.22,3.91-6.07,3.26s-4-2.74-4.26-5.47c-.38-4.58-1.1-9.13-.85-13.76.54-10.09-.74-20.1-1.52-30.13a9.44,9.44,0,0,0-3.68-7,3,3,0,0,1-1.56-2.39c1-1.91,1.42-4.15,3.22-5.59a2.21,2.21,0,0,1,1.56,0c2.28.58,1.85-1.49,2.22-2.49,3.37-8.9,6.77-17.78,10.06-26.71C1502.22,151.55,1502.7,149.71,1504.16,148.41Z"/><path class="cls-1" d="M1719.29,158.19c-1,.92-2,1.86-3,2.74s-2.17,2-4,1.9c-.26-2.32.85-3.88,2.25-5.31,1-1.07,2.16-2.07,3.14-3.19.64-.74,1.31-1.62.52-2.67s-1.8-2-3.14-1.33c-2.31,1.18-4.51,2.59-6.72,4a2.61,2.61,0,0,0-.87,1.18c-1.72,4.1,1.64,10.61,6,11.49s8.84,1.37,13.21,2.31a106,106,0,0,0,18.73,2.32c8.53.3,14.34,6.65,15,15.18.29,3.57.09,7.2,1.43,10.65a4.47,4.47,0,0,1-.21,3.3c-.45,1-.87,2.21-2.07,2.48-1.38.32-1.36-1.12-1.9-1.85-.39-.53-.91-.81-2-.43a41.19,41.19,0,0,0,5.07,10.91c.53.83,1.31,1.52,1.82,2.36a7.75,7.75,0,0,0,6.85,4.2,6.73,6.73,0,0,1,5.9,4c.76,2.1.16,2.87-2,2a6.14,6.14,0,0,1-1-.54c-7.33-4.24-13.39-2.85-18.09,4.11-2.57,3.81-5.77,7.12-9.28,11.12a20.42,20.42,0,0,0,5.73-2.69,71.83,71.83,0,0,1,14.6-7.34,6.55,6.55,0,0,1,2.11-.7,17.21,17.21,0,0,0,9.41-2.36,11.08,11.08,0,0,1,1.51,1.64c1.3,2.15.34,3.93-2.17,4.14a1.61,1.61,0,0,1-.38,0c-5.73-.89-10.61,1.37-15.52,3.91-7,3.61-13.78,7.39-19.8,12.47-.76.64-1.49,1.31-2.2,2-.15.15-.15.44-.29.88,2.1,1.15,4.26.8,6.35.11a19.05,19.05,0,0,0,4-1.93c8.12-5,17.36-6.49,26.46-8.33,2.7-.55,4,.35,4.66,3,.79,3,1.22,6.1-.41,9-.38.48-.16,1.41-.76,1.6-3.33,1-3,3.59-2.7,6.14-2.27,3.37-5.66,5.56-8.65,8.16-.77.66-1.72,1.29-2.7.59s-1-2-.72-3.08a8.06,8.06,0,0,1,1.63-2.91c2.43-3.31,5-6.55,7.63-9.66a21.73,21.73,0,0,0,2.85-3.91c.68-1.27,1.05-2.62.15-3.88s-2.25-.74-3.44-.46c-8.47,2-17,3.68-24.6,8.39-3.77,2.35-8,2.64-12.28,2-5.67-.83-7-4.09-3.4-8.46,8.09-9.93,16.28-19.79,24.86-29.3,1.7-1.87,2.06-3.52.83-5.66a66,66,0,0,1-3.27-5.87c-1-2.16-2.06-1.7-3.23-.17a25.33,25.33,0,0,1-3.72,4.16c-2.41,2-5,2.9-7.81.88-1.9-1.36-3.07-.68-4.32,1A13.48,13.48,0,0,1,1723,218c-4.24-.29-6.06-2.94-4.6-6.91,1.23-3.36,2-7,4.23-9.9,1.07-.88,2.07-.94,3,.23.76,3-.63,5.61-1.34,8.33-.54,2.08,0,2.72,2.06,2.7,3.47,0,5.31-1.58,5.56-5,.41-5.51,3.91-9,7.92-12.08a3.14,3.14,0,0,1,4.43.25c1.24,1.32.72,2.78-.17,4.1-1.11,1.64-2.7,3-3.27,4.95-.64,2.18.32,3.14,2.48,2.53a7.92,7.92,0,0,0,4-2.66c2.54-3.08,4.49-6.57,6.81-9.81a3.54,3.54,0,0,0,.14-3.56,97.1,97.1,0,0,1-3.43-10.65c-.68-2.57-2.1-4.21-5-4.1a13.28,13.28,0,0,0-9.58-2.35,185.51,185.51,0,0,1-23.13-3.52c-6.15-1.32-11.24-9.57-10.24-15.88.45-2.8,2.26-4.62,4.7-5.86,1.55-.8,3.25-1.21,4.84-1.9,1.46-.34,2.35-2.17,4.16-1.63,4.21.57,6.35,4,9,6.65.46.47.06,1.17-.3,1.7C1724.11,156.31,1721.75,157.32,1719.29,158.19Z"/><path class="cls-1" d="M1559.4,336.75a2.94,2.94,0,0,1,1.73-1.74l7.26,3.89a23.71,23.71,0,0,1,5.17,5.27,47.22,47.22,0,0,1,6.18,7.9c2,3.46,3.71,7.12,3.72,11.17a34,34,0,0,0,3,12.95c.44,1.33.71,2.82-.16,3.92-3.17,4-2.76,8.55-2.19,13.12.24,1.88.45,3.7-.66,5.39a13.63,13.63,0,0,1-2.34,5c-1.53,2.2-2.76,4.46-2,7.29a1.37,1.37,0,0,1-1.22,1.88,1.65,1.65,0,0,1-2.13-1,15.11,15.11,0,0,1-.5-1.78,65.38,65.38,0,0,0-15-28.36,93.51,93.51,0,0,1-9.74-13.65c-2.53-4.14-5-8.33-7.68-12.35-4.41-6.54-10.35-10.5-18.52-10.95-5.26-.28-9.76-2.8-13.7-6.2a162.86,162.86,0,0,1-15-15c-3.14-3.51-6.14-7.16-9.2-10.75-.29-1.27.48-1.7,1.5-1.93,1.93.21,2.94,1.75,4.18,2.92,6.33,6,12.08,12.52,18.43,18.47,6,5.6,12.69,9.51,21,10.36,6.68.69,11,5,14.48,10.14,5.5,8.13,10.5,16.6,15.84,24.84,3.66,5.63,8.61,10.26,12.16,16.12a24.43,24.43,0,0,1,3.52-10.49c2.85-5.14,2.53-10.23,0-15.36A174.06,174.06,0,0,0,1561.27,341C1560.34,339.74,1559,338.62,1559.4,336.75Z"/><path class="cls-1" d="M1762.65,480.06c-2.76,14.87-9.29,28-18.5,39.86-1.45,1.87-3,3.69-4.43,5.54-1,1.27-2,2.71-4,2s-2.17-2.27-2.08-4c.19-3.6.13-7.3,1.41-10.69,3.18-8.4,4.68-17.25,7.14-25.84a88.79,88.79,0,0,1,5.4-14.28,103.78,103.78,0,0,0,9.8-38c.71-9.79,1.39-19.58,2.72-29.32a43.78,43.78,0,0,0-3.33-23,47.49,47.49,0,0,0-4.84-9.6,21,21,0,0,1-2.59-20.56,65.36,65.36,0,0,1,8.68-15.55c1-.49,1.9-.64,2.56.41a2.22,2.22,0,0,1-.23,2.41,5.59,5.59,0,0,1-2.21,1.88c-1.09,1.94-2.15,3.91-3.27,5.84-4.84,8.33-5.17,16.69-.21,25.09,1.2,2,2.4,4.07,3.62,6.1a29.56,29.56,0,0,1,4,11.9c.63,5.17,1.79,10.27,1.18,15.56-.32,2.74-1.36,5.28-1.75,8a110.08,110.08,0,0,0-.79,14.51,68.61,68.61,0,0,1-2.41,19.18,6.81,6.81,0,0,0-.35,2.18c.22,5.14-1.48,9.71-3.61,14.29a238.94,238.94,0,0,0-15.26,45.51,51.94,51.94,0,0,0-1.73,8.38c-.1,1.47-.39,3,.61,4.57A101.25,101.25,0,0,0,1753.6,499a78.32,78.32,0,0,0,6.54-22.46,31,31,0,0,0,0-4.09c0-2.59.09-2.66,3.17-2.2C1764.65,473.65,1763,476.82,1762.65,480.06Z"/><path class="cls-1" d="M1645.37,377.69c-2.07-6.48-5.49-12.32-8.8-18.21a20.23,20.23,0,0,1-2.42-4.94c-.33-1.25.27-1.61,1.4-1.45,6.09,8.27,10.36,17.5,14,27.06a27.74,27.74,0,0,0,3.44,6.56c3.34,4.63,6.32,9.49,10.69,13.33,2.62,2.31,4.21,5.5,6,8.49,8.48,14,14.18,29.24,19,44.82,1.77,5.69,3.67,11.34,5.8,16.92,1.34,3.49,1.54,7.24,1.93,11.35A12,12,0,0,1,1692,478a23.64,23.64,0,0,1-4.76-8.38c-3.41-10.44-8.4-20.17-13.24-30-5.12-10.36-10.1-20.78-14.66-31.41a111.33,111.33,0,0,0-6.52-13.7c-2.21-3.68-4.57-7.09-8.19-9.5.43-1.52,2-2.7,1.29-4.56l0-.32C1645.53,379.38,1646,378.4,1645.37,377.69Z"/><path class="cls-1" d="M1489.27,182.78l-1.38,0c-1.53-1.39-.7-3-.31-4.49,1.39-5.26,3.83-10.17,4.76-14.51-3.75,6-6,13.73-8.27,21.42-.36,1.19-1,2.35.76,2.94,3,2.32,5.71,4.8,5.83,9-1,.73-1.3,2.68-3.2,1.91-.64-1.82-1.5-3.48-3.35-4.37-2.29-.77-2.4,1.28-2.93,2.45a44.33,44.33,0,0,0-3.4,13.68c-.55,4.69-1.07,9.39-2.06,14-2.88,13.45-1.87,26.92-.63,40.41.46,4.95.92,9.89,1.58,14.81a5,5,0,0,1-.44,3.26c-.26.27-.72.64-.91.33-2.45-4.05-5.87-7.74-5.2-13,1.06-1.89.75-4,.36-5.84-2.52-11.87-1.28-23.7,0-35.57.46-4.43,1.41-8.78,1.73-12a202,202,0,0,0-3.32,34.64,41.06,41.06,0,0,0,1.26,11c.5,1.92,1,3.89-.09,5.8-1.77.23-1-1.12-1.27-1.76.16,3.54,2,7.29-.45,10.86-.12-6.31-2.41-12.37-2-18.77.26-4.58-.9-9.13-.92-13.74a91.32,91.32,0,0,1,2.85-22.86,363.64,363.64,0,0,1,21.8-61.74c1.91-4.21,4-8.32,7.45-11.49,1-1,1.95-2.33,3.71-2.14,1.25,1.43.95,3,.31,4.53-3.8,9.15-6.3,18.75-9.79,28C1491.17,180.8,1491.28,182.59,1489.27,182.78Z"/><path class="cls-1" d="M1667,505.4l-.15-1.36c-.37-.76,0-1.68-.5-2.41-2.61-15.29-4.25-30.74-8.31-45.76a160.69,160.69,0,0,0-14.55-36.57A103,103,0,0,0,1630.76,401c-7.92-9-15-18.5-20.2-29.37-2-4.25-3.12-8.91-5.85-12.86-.81-1.18-1-2.6.37-3.65s2.63-.3,3.64.68,2,2.2,3,3.31c.64,1.87-2.58,2.41-1.51,4.43,4.23,10.31,10.39,19.46,17.15,28.24,4.24,5.51,8.49,11,12.8,16.47,9.16,11.57,15,24.77,19.34,38.75a229.51,229.51,0,0,1,9.13,44.41c.66,6.54,1.33,13.11,4.64,19a4.25,4.25,0,0,1,.46,1.41c.24,1.5-.41,2.1-1.9,1.73a6.11,6.11,0,0,1-2.59-1.42C1667.74,510.14,1667.58,507.7,1667,505.4Z"/><path class="cls-1" d="M1663.92,558.36c2.31-1.1,4.87-1,7.29-1.23,7.17-.73,14.36-1.23,21.56-1.61,8.19-.44,16.29-1.87,24.51-1.94,4,0,8-.31,11.92-.33,15.17-.08,30.3-1.62,45.49-.72,10.79.65,21.57,1.56,32.4,1.52a3.89,3.89,0,0,1,2.48.63,3.69,3.69,0,0,0,2.08.71c7.33.21,9.26.68,8.88-8.08a68.41,68.41,0,0,1,.35-9.29c.15-1.56.57-3.1,1-5.15a11.43,11.43,0,0,1,1.93,6.72c.12,4.23,0,8.46.12,12.68,0,1.61.19,3.22.34,4.83.27,2.8-.51,3.61-3.39,3.1-4.52-.8-9-1.67-13.53-2.65a71.68,71.68,0,0,0-14.08-1.2c-16.16-.32-32.32-1.1-48.48-.6-12.92.4-25.86.29-38.76,1.28-8.92.68-17.82,1.59-26.72,2.45a119.3,119.3,0,0,1-14.52.39A1.92,1.92,0,0,1,1663.92,558.36Z"/><path class="cls-1" d="M1716.52,145.3c-1.32.48-1.94,2-3.36,2.32-3.1-5.61-8.48-8.94-13.15-12.94a142.59,142.59,0,0,0-26.74-18.21,75.12,75.12,0,0,0-27.75-7.93c-6-.58-12.1,1.1-17.66,3.79-7.72,3.73-15.37,7.58-22.44,12.48a6.14,6.14,0,0,1-4.11,1.49c-1.88-.87-2.5-2.49-2.66-4.4,1.58-5.14,5.65-8.28,9.39-11.66a43,43,0,0,0,4.17-3.68c4.49-5.36,10.21-7.49,17.13-7,3.45.26,6.93,0,10.39.08,2.84.1,5.7.3,8,2.29.59,2-.82,2.52-2.24,2.42-5.82-.41-11.66.88-17.46-.26a10.66,10.66,0,0,0-7.83,1.72c-3.78,2.36-7,5.48-10.84,8.68a4.38,4.38,0,0,0,3.25-.49c5.38-2.26,10.77-4.5,16-7a30,30,0,0,1,16.33-2.5,10.11,10.11,0,0,0,5.43-.63c3.38-.58,6.2,1.21,9.19,2.2,3.15,1,6.18,2.42,9.47,3,1.34-.22,2.68-.45,3.86.51,1.91,3.34,5,5.32,8.2,7.21A145.16,145.16,0,0,1,1716.52,145.3Z"/><path class="cls-1" d="M1587.12,380.61a8,8,0,0,1,2.86,6.23c1.06,17.13,1.17,34.24-2,51.2-1.49,8-4.85,15.35-8.54,22.54a177.2,177.2,0,0,1-19.63,29.78,8.37,8.37,0,0,1-1.52,1.62q-10.62,7.83-21.3,15.62c-1.23.32-1.59-.23-1.38-1.36,3.86-3.12,7.74-6.23,11.58-9.38,2.11-1.73,4.2-3.5,6.25-5.31,7.13-6.3,13.27-13.29,17.6-21.93,4.45-8.88,9.51-17.45,12.41-27a67.61,67.61,0,0,0,2.82-17.59c.16-5.09.61-10.17.81-15.26a35.81,35.81,0,0,0-.8-11.11c-2-5.49-1.14-11.11-.69-16.69A1.37,1.37,0,0,1,1587.12,380.61Z"/><path class="cls-1" d="M1595.31,499.43c.19,4.42,1.39,6.13,5.41,7.28,1.92.55,3.92.78,5,2.79.44.8,1.31.57,2,.57a18.21,18.21,0,0,1,6.52,1.38c16.4,6.41,31.91,14.38,45.31,26a19.75,19.75,0,0,1,1.68,1.46,1.71,1.71,0,0,1,.23,2.37,1.59,1.59,0,0,1-2.33.18,13.51,13.51,0,0,1-1.46-1.16c-13.07-12-28.58-19.6-45.2-25.2-3.62-1.21-7.06-2.85-10.84-3.69-3.53-.79-6.35-3.29-9.33-5.29-.41-1.86.5-3.55.74-5.32C1593.22,499.71,1593.8,498.66,1595.31,499.43Z"/><path class="cls-1" d="M1595.31,499.43c-1.54.11-1.65,1.25-1.55,2.36a5.78,5.78,0,0,1-1.43,4.35,94.89,94.89,0,0,1-10.94-1.93,23.6,23.6,0,0,0-11.08-.21,59.57,59.57,0,0,0-17.23,6.89,24.32,24.32,0,0,0-4.62,3.72,2.84,2.84,0,0,1-1.88-1.87c3.17-4.23,7.5-6.73,12.43-8.31,3.36-1.08,6.41-3.39,10.25-2.63,2.1,1.21,4.35.34,6.48.24,3.26-.14,6.55.92,9.78-.18l5.7,1c.79-1,.31-2,.34-3,.1-3.38,1.76-5.87,5-6.42,6.48-1.08,12.93-2.5,19.5-2.78,4.75-.2,9.31,1.22,13.94,2a3,3,0,0,1,2.48,1.59c-1.86,1.72-3.9,1.19-5.87.55-10.49-3.43-20.28-1-29.82,3.53A10.94,10.94,0,0,0,1595.31,499.43Z"/><path class="cls-1" d="M1775.25,260.31c-1.63-3.92-1.62-3.9,2.17-5.94A9.9,9.9,0,0,0,1779,253c.37.69,1,.61,1.61.53,3.26-.45,5.77.93,7.93,3.21,2.66,2.78,5.38,5.5,8,8.33,7.94,8.6,10.63,18.82,9.17,30.28-.74,5.86-3.52,10-9.57,11.33-1.12-.44-2.6-.26-3.11-1.76a1.24,1.24,0,0,1,.36-.64c8.6-6.85,10.76-15.68,6.36-26.28-2.68-6.43-7.19-11.59-11.93-16.51-2.71-2.82-6.1-3.74-9.84-1.65C1777.18,260.27,1776.31,261,1775.25,260.31Z"/><path class="cls-1" d="M1681.21,340.22l-1.59,1.75c-15-3.64-29.27-9.24-43.69-14.5a66.06,66.06,0,0,1-21.81-13.16c-.83-.74-1.47-2.2-3.07-1.49-.67-1.24-.19-2.26.62-3.21,1.54-.31,2.58.68,3.67,1.46,1.51,1.09,3.12,2.05,4.54,3.24,8.18,6.87,17.84,10.45,28,13.28,10.51,2.93,20.71,6.9,31,10.63C1679.83,338.58,1681.09,338.76,1681.21,340.22Z"/><path class="cls-1" d="M1546.58,512.74a1.91,1.91,0,0,1,1.88,1.87,26.37,26.37,0,0,1-14.53,12.11c-14.16,5.08-25.1,14.31-33.76,26.42a57.35,57.35,0,0,1-6.21,6.91c-.75.6-1.25,1.59-2.39,1.63a2.41,2.41,0,0,1-1.71-1c0-1.61,1.22-2.32,2.38-3.06a148.41,148.41,0,0,0,9.6-11.33c5.31-7.21,12.23-12.59,20-16.9a94.72,94.72,0,0,1,13.12-6.11,14.55,14.55,0,0,0,6.93-5.37C1543.26,516,1544.43,513.93,1546.58,512.74Z"/><path class="cls-1" d="M1558.13,327.57a12.57,12.57,0,0,1-7-7.64c-2.17-5.9-5.09-11.52-6.18-17.8a23.75,23.75,0,0,1-.38-6.62l1.55-.73c2.13.58,2.13,2.6,2.58,4.15,1.46,5,3,10,4.4,15,1.75,6.35,5.64,10.33,12.25,11.52,7.65,1.38,15.28,2,22.86-.38a1.31,1.31,0,0,1,1.11.34c.11.48.21,1,.33,1.43.58,2.25.45,2.55-1.78,2.93-8.33,1.45-16.62,2.18-24.75-1.18A11.8,11.8,0,0,0,1558.13,327.57Z"/><path class="cls-1" d="M1663.92,558.36a1.62,1.62,0,0,1,.83,1.51l-2.85.12c-3,.82-6.1-.27-9.09.61l-4.33.15c-2,.72-4.12-.15-6.12.52-4.1.1-8.2.27-12.3.28a192.85,192.85,0,0,0-21.21,1.28c-13.36,1.54-26.8,1.54-40.23,1.69-2.73,0-5.47,0-8.21,0a7.8,7.8,0,0,1-4.24-.12c1.17-1.82,2.94-.66,4-1.39,8-.38,15.92,0,23.85-.83,5.93-.63,11.88-1,17.81-1.71,6.19-.72,12.42-.12,18.61-.68a38.31,38.31,0,0,1,9.45,0h3.93c2-.64,4.22.27,6.25-.56l2.11-.12c5.29-.67,10.6-.09,15.89-.3,1.47-.06,3,.29,4.4-.29Z"/><path class="cls-1" d="M1560.22,563c-.84.82-2.06.35-3.69,1.06l3.88.45c-7,.77-14,1.65-21.07,1.54-16.23-.26-32.46-.65-48.66-1.86-.66-1.22-.12-2.06.89-2.75.71-.63,1.18-1.65,2.39-1.42,1.91,2.39,4.59,2.75,7.37,2.77l41.39.18Z"/><path class="cls-1" d="M1785.83,481.42a79.23,79.23,0,0,1,23,16.22c6,6.29,10.48,13.49,12.47,22.08.59,2.55.94,5.1-.52,7.6-1.14-.49-1.27-1.49-1.52-2.38a13.91,13.91,0,0,1-.75-3.25c-.19-7.3-4-12.86-8.48-18.15a85.07,85.07,0,0,0-22.28-18.41l-3.51-2.11C1783.6,481.32,1784.29,481,1785.83,481.42Z"/><path class="cls-1" d="M1635.55,353.09a2.47,2.47,0,0,0-1.4,1.45c-2.63-2.38-4.23-5.5-6.06-8.44s-3.8-5.53-7-6.91c-1.08.35-1.19,1.32-1.58,2.06-2.16,4.18-5.57,6.3-10.27,6-6.45-.38-12.67-2-18.87-3.46,0-1.5,1-1.2,1.63-1.29a28.12,28.12,0,0,1,11.06,1,18.71,18.71,0,0,0,6.65.55,9.55,9.55,0,0,0,8.68-9.71c1.56,1.49,2.33.23,3.12-.91.79.95,1.52,2,2.38,2.83C1628.81,341.21,1632.4,347,1635.55,353.09Z"/><path class="cls-1" d="M1758.19,341.31c.13-.94.93-1.43,1.41-2.12,1.17-1.67,1-2-1.53-2.58,2.71-1.17,3.06-1.09,3.89,1a14.9,14.9,0,0,1,.53,1.76c.13.46.23.93.56,2.33,4.5-10.62,12.27-18.14,18-27-.81-.67-1.46-.26-2-.42,2.11-2.79,4.42-3,7.48-.76-3.11,3.86-6.24,7.7-9.34,11.58a69.09,69.09,0,0,0-10.58,17.42,7.42,7.42,0,0,1-1.3,2.23c-2.22,2.41-4.75,1.85-5.81-1.24C1759.19,342.65,1759.06,341.77,1758.19,341.31Z"/><path class="cls-1" d="M1535.63,506.24a3,3,0,0,0,1.38,1.36c-13.43,10.88-26,22.78-39,34.16a10.84,10.84,0,0,1-1.31.76c-.07-3.14,1.55-5.08,3.48-6.79,2.88-2.55,5.92-4.91,8.75-7.54,6.08-5.68,11.75-11.82,18.49-16.79A41.77,41.77,0,0,1,1535.63,506.24Z"/><path class="cls-1" d="M1610.19,363.52c-1.4-.77-1.77-1.71-.34-2.76.68-.5,1.53-.78,1.85-1.67q14.67,10.2,29.35,20.4c1.47,1,3.07,1.66,4.9,1l1.27,2.63c-.77.84-2.17.73-2.56,1.93-11.05-6.78-22.58-12.85-32.25-21.69C1611.6,362.58,1610.8,362,1610.19,363.52Z"/><path class="cls-1" d="M1621.54,333.48c-.21,2.43-.21,2.43-1.62,4.44-1.13-1-.11-2.83-1.5-3.53-2.43-3.83-5-7.53-6.37-12-.89-2.86-3-5.36-4.48-8s-3-5.08-3.47-8.08c.49-1.11-.53-3,1.6-3.25a16.94,16.94,0,0,1,6,6.81c.34,1.12-.64,2-.65,3a4.55,4.55,0,0,0,1.06,3.44c1.86,2.13,3,4.72,4.88,6.88A22.5,22.5,0,0,1,1621.54,333.48Z"/><path class="cls-1" d="M1470.69,270.77a7.67,7.67,0,0,0,1.08,4.6c1.37,2.74,2.66,5.51,4,8.26a2.07,2.07,0,0,1,.75,1.2c.93,1.69,2.84,2.95,2.33,5.28-1,3.3.43,6.47.54,9.72-.29,1.57-.56,3.16-2.7,3.12-2.51-1.74-4.14-4.11-3.84-7.19.63-6.6-1.29-12.46-4.54-18,.63-3.75-.16-7.53,0-11.62,1.13.77.61,2.07,1.43,2.61A1.69,1.69,0,0,1,1470.69,270.77Z"/><path class="cls-1" d="M1672.94,109.61a7.37,7.37,0,0,0-3.84.65,62.59,62.59,0,0,0-14.6-23c-2.44-2.54-4-5.81-7.13-7.89a4.77,4.77,0,0,1-2.12-4.85,1.6,1.6,0,0,0,.81-1.5C1657.5,83.41,1667.89,94.54,1672.94,109.61Z"/><path class="cls-1" d="M1667,505.4c2.25,1.75,1.92,4.35,2.23,6.74a20.31,20.31,0,0,1-5.54-2.05c-7.45-3.41-14.66-7.31-21.9-11.13-.72-.38-1.4-.85-2.58-1.58a12.93,12.93,0,0,1,8.14,1.16c5.11,2.24,10,4.94,14.86,7.67C1664.83,507.68,1664.77,507.79,1667,505.4Z"/><path class="cls-1" d="M1786.5,313.48a7.76,7.76,0,0,0-7.48.76c-2.23,1.2-4,3.16-6.6,3.78-.62,0-1.25,0-1.86-.13-1.94-.28-2.16-1.33-1.24-2.87a2.11,2.11,0,0,1,1.33-.82,9.79,9.79,0,0,0,2.53-.74c5.32-2.1,10.14-5.22,15.32-7.6,1.42-.65,2.79-1.8,4.51-.76,1.18.26,2.61,0,3.14,1.56Z"/><path class="cls-1" d="M1573.47,300.91a1.7,1.7,0,0,0,1.77-1.77c2.45,2.5,5.68,3.49,8.88,4.4q7,2,13.73,4.58a5.62,5.62,0,0,1,3.56,3c-.53,1.1-1.24,1.93-2.62,1.82-5.79-3-12.13-4.27-18.34-6C1577.28,306.08,1573.79,305.23,1573.47,300.91Z"/><path class="cls-1" d="M1785.83,481.42c-1,.11-1.7.43-1.6,1.6a69.54,69.54,0,0,1-13.18-5.9c-1.42-.77-2.85-1.52-4.32-2.17-2-.89-2.42-.7-2.71,1.37-.2,1.37-.33,2.7-1.37,3.74a27.72,27.72,0,0,1,.7-9.77c6,1.63,11.33,4.84,16.76,7.75C1782.06,479.09,1783.93,480.29,1785.83,481.42Z"/><path class="cls-1" d="M1598.86,312.57c1-.26,1.39-1.52,2.55-1.45a21,21,0,0,1,1.59,1.54c.75.89.39,1.62-.5,2.13a7.45,7.45,0,0,1-1.72.72,17.09,17.09,0,0,0-11.41,9.93l-.74,0c-2.59-2.85-2.44-6.72.73-8.9A20.74,20.74,0,0,1,1598.86,312.57Z"/><path class="cls-1" d="M1573.56,344.17a9.3,9.3,0,0,1-5.17-5.27c6.1.56,12.18,1.19,18.64,2-2.25,3.14-4.9,2.73-7.44,2.21a16.82,16.82,0,0,0-4.4-.57A1.53,1.53,0,0,0,1573.56,344.17Z"/><path class="cls-1" d="M1492.24,557.63a5.4,5.4,0,0,1-2.33,2.94c-1.11,1.11-2.34,1.57-3.81.69,1-2.77,2-5.56,3-8.3a11,11,0,0,1,5.81-6.57c.58,2.46-1,3.89-1.84,5.55S1490.71,555.47,1492.24,557.63Z"/><path class="cls-1" d="M1719.29,158.19l5.9-4.54a9.79,9.79,0,0,0,2,6.25,7.13,7.13,0,0,1,1.2,4.2c0,.72.11,1.59-.71,1.94-1,.44-1.68-.33-2.17-1a24.55,24.55,0,0,1-1.87-3.18C1722.66,160.05,1721.51,158.5,1719.29,158.19Z"/><path class="cls-1" d="M1476.67,303c1.3-.54,1.46-1.92,2.14-2.91a21.45,21.45,0,0,1,9.16,11,3,3,0,0,0-1.7,1.66C1482.92,309.62,1479,307,1476.67,303Z"/><path class="cls-1" d="M1585.52,501.86c-.2,1.07-1,1.32-1.91,1.31-4.09,0-8.18-.09-12.27-.1a2.18,2.18,0,0,1-2.08-1.27c.48-.08,1-.14,1.45-.25A26.83,26.83,0,0,1,1585.52,501.86Z"/><path class="cls-1" d="M1486.1,561.26a12.33,12.33,0,0,1,3.81-.69c.65.11,1.32.21,1.66.9-.3.92-.59,1.84-.89,2.75-1.81,1-3.41,2.48-5.53,2.92-1,.21-1.35-.29-1.1-1.25.7-1.41-.41-3.44,1.51-4.44A2.47,2.47,0,0,1,1486.1,561.26Z"/><path class="cls-1" d="M1485.56,561.45c-.51,1.48-.43,3.16-1.51,4.44.12-1.39-.64-2-1.92-2.25l-4.41-.71a9.86,9.86,0,0,1-4.83-2,10,10,0,0,1,4.15-.27c1.49,0,3,.07,4.47.22S1484.21,561.24,1485.56,561.45Z"/><path class="cls-1" d="M1662.52,558.51a2.09,2.09,0,0,1-1.67.67l-18.62-.08c2.38-.91,4.88-.58,7.32-.62C1653.87,558.4,1658.2,558.49,1662.52,558.51Z"/><path class="cls-1" d="M1652.81,560.6c3-1.39,6-.58,9.09-.61C1658.92,560.93,1655.86,560.64,1652.81,560.6Z"/><path class="cls-1" d="M1629.94,559.78a67.74,67.74,0,0,1-9.45,0A20.53,20.53,0,0,1,1629.94,559.78Z"/><path class="cls-1" d="M1640.12,559.22c-2,1.28-4.15.57-6.25.56A13.81,13.81,0,0,1,1640.12,559.22Z"/><path class="cls-1" d="M1642.36,561.27c2-1.22,4.06-.56,6.12-.52C1646.5,561.59,1644.42,561.34,1642.36,561.27Z"/><path class="cls-1" d="M1666.34,501.63a2.24,2.24,0,0,1,.5,2.41A2.35,2.35,0,0,1,1666.34,501.63Z"/><path class="cls-1" d="M1645.37,377.69a2.11,2.11,0,0,1,.61,2.44A3,3,0,0,1,1645.37,377.69Z"/><path class="cls-1" d="M1666.24,169.29c-11.55,1.62-19.71,8.29-26.08,17.58-1.48,2.15-2.79,4.42-4.17,6.63-1.48,2.37-3.59,3.95-6.38,4-2.43,0-3.92,1.31-5.34,2.92s-2.77,3.18-4.16,4.78c-.83,1-1.69,1.94-3.14,1.46-1.78-.58-1.33-2.12-1.43-3.44a17.42,17.42,0,0,1,1-5.86c.54-1.94.89-3.86-.11-5.59-.57-.38-.88-.19-1.12.1-4.32,5.14-8.71,10.23-13,15.43a54,54,0,0,0-8.66,14.31c-.82,2.09-1.73,4.11-.86,6.46.39,1.08-.21,2.2-.52,3.27a4,4,0,0,1-2,.72c-2-3.89-3.86-7.82-5.46-11.87-.07-2,1.36-2.5,2.52-1.58,2.65,2.11,3.84.75,5-1.51,1.86-4.91,4.94-9.08,8.18-13.14,4.55-5.71,9.76-10.82,14.75-16.13a34.39,34.39,0,0,0,6.89-9.55c1.72-1.18,4.21.75,5.7-1.4,7.54-6,15.6-11,25.21-13,1.34.06,2.77-.16,3.68,1.21-.25,2.39-2.29,2.7-4,3.34a102,102,0,0,0-24.52,13.27c-5.42,4-6.85,9.36-7.53,16.05a49.93,49.93,0,0,0,16.61-13.6c2.82-3.63,5.31-7.52,8.83-10.57,6.77-5.85,14.46-8.58,23.45-7,.83.43,1.9.62,1.9,1.94C1669.85,169.58,1667.88,168.37,1666.24,169.29Z"/><path class="cls-1" d="M1598.3,240.32c4.76-7.15,9.78-14.22,17.34-18.6,5.24-3.05,10.32-6.37,15.67-9.24,4.25-2.29,8.53-4.59,11.93-8.14,2.25.42,4.68.15,6.65,1.69-5.09.64-9,3.66-13.16,6.32a74.4,74.4,0,0,1-14,7.56,18.59,18.59,0,0,0-5.21,3.51,154.49,154.49,0,0,0-19.06,19.22Z"/><path class="cls-1" d="M1596.68,248.65c-3,.25-4.5,2.56-6.06,4.53a45,45,0,0,0-7.22,13.39c-1.47,4.22-.74,8.32.74,12.36-1.87,2.1-1.88,2.11-3.13-.15a2.53,2.53,0,0,0-1.35-1.13c-1.39-11.52,3.9-20.58,10.77-29,1.49-1.84,2.9-3.69,3.36-6.09Z"/><path class="cls-1" d="M1544.47,294.9c-1-1.15-.6-2.53-.63-3.84C1545,292.19,1544.48,293.59,1544.47,294.9Z"/><path class="cls-1" d="M1598.43,243.9a2.68,2.68,0,0,1,.45,2.41A2.22,2.22,0,0,1,1598.43,243.9Z"/><path class="cls-1" d="M1588.64,120.84c-.93-1.06-1.85-.89-2.77,0a7.12,7.12,0,0,1-3.23,2.19,1.85,1.85,0,0,0-1.66-1.71c2.56-2.83,5-5.81,9.1-6.53C1592.46,118.08,1592.11,119.54,1588.64,120.84Z"/><path class="cls-1" d="M1746.08,176c-.58,5.77-3.39,10.2-8.63,12.6a22.4,22.4,0,0,0-12.19,12.82,1.92,1.92,0,0,0-2.14,0c.19-1,.42-1.92.56-2.89.73-5.07,3.34-8.67,8.16-10.6,3.65-1.47,6.44-4.11,9.15-6.84a6.48,6.48,0,0,0,1.66-2.85c.71-2.55,0-3.71-2.7-3.89-1.38-.09-2.72-.13-3.8-1.15C1739.88,172.67,1743.32,173.12,1746.08,176Z"/><path class="cls-1" d="M1576.49,355.92c-3.12-2.74-3.75-3.8-4.64-7.59C1574.71,349.43,1575.89,351.3,1576.49,355.92Z"/><path class="cls-1" d="M1679.77,444.11c1.85.15,1.33-1.29,1.5-2.26a64.86,64.86,0,0,1,5.23,13.83c.65,2.51,1.69,4.91,2.53,7.37.36,1.07-.12,1.68-1.17,1.83-.84.12-1.47-.19-1.54-1.14C1685.77,456.65,1681.76,450.71,1679.77,444.11Z"/><path class="cls-1" d="M1487.85,199.34c-2.31,7.92-4.76,15.8-6.35,23.94-1.32-4.22-1-8.48-.24-12.64,1-5.34,2.35-10.6,3.55-15.9C1487.62,195.33,1487.62,195.33,1487.85,199.34Z"/><path class="cls-1" d="M1581.75,149.7A48.5,48.5,0,0,0,1593,130.86a16.45,16.45,0,0,1,6-8.57l2.2,3.66c-.85,1.84-2.82,2.78-3.75,4.55-.33.62-1,1.31-.22,1.95a1.9,1.9,0,0,0,2.11,0c1.16-.59,1.64-1.84,2.55-2.67,1.53-1.42,2.93-1.4,4.17,0a1.16,1.16,0,0,1-.11,1.88c-3.32,3.07-6.61,6.17-9.91,9.27-.29,2.25-2.67,2.32-3.81,3.69a79.55,79.55,0,0,0-7.48,8.8C1581.61,153.46,1581.25,153,1581.75,149.7Z"/><path class="cls-1" d="M1476,285.05c1.44-.06,2.11-1.06,2.77-2.16,2.1-3.51,4.33-6.94,6.36-10.49,3.1-5.41,7.15-10.12,10.93-15,3.63-4.69,7-5.31,12.46-3a34.16,34.16,0,0,1,6.17,3.43c3.5,2.44,3.65,2.39,5.82-1.33,1.29,3.21.7,4.34-3.62,7-2.65-1.83-5.3-3.67-8-5.48-3.17-2.15-6.25-2-9.27.38a31.65,31.65,0,0,0-8.67,9.56c-4.08,7.36-8.14,14.76-12.75,21.83a3.54,3.54,0,0,0-1.77-3.25C1476,286.26,1474.93,285.91,1476,285.05Z"/><path class="cls-1" d="M1770.62,314.86a3.18,3.18,0,0,1,2.43-.56A2.08,2.08,0,0,1,1770.62,314.86Z"/><path class="cls-1" d="M1591.61,144c1-1.68,3.44-1.36,4.47-3.05a2,2,0,0,0,.69,1.64c2.83,2.36,2.85,5.38,1.78,8.51q-3.25,9.51-6.73,18.95c-2.4,6.53-4.81,13.06-7.43,19.5-2.32,5.69-2.31,11.08,1,16.38,1.95,3.12,2.32,6.79,3.24,10.26.72,2.73,1.17,2.81,3.67.87a6.38,6.38,0,0,1-.15,1.08c-1.29,3.82-1.33,3.86-4.52,1.31-1.38-1.1-2.15-.68-2.8.7-4.39-6.86-7.2-14.18-6.61-22.49a9.32,9.32,0,0,0-1.65-5.27c-2.54-4.48-2.76-9.08-1.66-14s2.4-9.65,3.52-14.49a10.5,10.5,0,0,0,.44-1.8c.08-1.38-.94-2.16-2.17-1.56a24.67,24.67,0,0,0-3,2.11c-1.82-.79-3.17-2.07-2.87-4.16.35-2.46,2.22-3.63,4.47-4.26,1.53.06,2.46-.93,3.44-1.89s1.69-2.15,3-2.63c.47,3.05.8,3.4,3,3.18,1.4,1.74.13,3.34-.38,4.88-2.54,7.67-5.1,15.32-6.3,23.35a9.41,9.41,0,0,0,1.68,7.6c1.53-1.93,1.92-4.05,2.57-6,3.63-10.71,8.23-21.05,11.84-31.77C1595.24,147.71,1594.81,145.49,1591.61,144Z"/><path class="cls-1" d="M1649.89,206c-2.28-.3-4.89.68-6.65-1.69.33-3.23,2.23-5.61,5.61-5.61,4.27,0,7.54-1.86,11-4,6.93-4.26,14.59-6.8,22.37-9,.71-.2,1.41-.45,2.12-.68,1.27-1.23,2.59-2.13,4.34-.81,2.12,2.31,2.23,3,0,4.17a8.54,8.54,0,0,0-4,4.71,8.36,8.36,0,0,1-7.51,5.65c-5.55.64-10.8,2.72-16.11,4.41A67,67,0,0,1,1649.89,206Z"/><path class="cls-1" d="M1684.11,161.71c-8.56-1.39-16.68.6-24.72,3.21-.92.3-1.74,1-2.81.76-1-1.45-2.6-.51-3.87-.88.21-1.75,1.8-1.9,3-2.45a57.49,57.49,0,0,1,20.81-5.21c1.13-.08,2.83.45,3-1.29.18-1.53-1.15-2.39-2.45-2.92a8.11,8.11,0,0,0-5.84,0c-7.44,2.57-15.26,3.24-22.91,4.78-8,1.61-15.16,4.85-19.26,12.56-1.22,2.29-2.54,4.66-.85,7.33-1.77,2.68-4,.83-6.07.61a31.64,31.64,0,0,1,5-13.12,20.94,20.94,0,0,1,13.07-9.25q16.83-4,33.73-7.87c4.67-1.05,7.47.68,8.74,5.21a12.74,12.74,0,0,0,1.9,4.79C1685.54,159.29,1685.06,160.57,1684.11,161.71Z"/><path class="cls-1" d="M1688.64,184.29c-1.58-.41-2.91.48-4.34.81.94-4-.53-7.24-3.49-9.88-2.6-2.31-5.76-3.79-8.74-5.51-1.78-1-3.89,0-5.83-.42,1.29-1.31,3-.39,4.47-.85-.06-.92-1.27-.51-1.48-1.26,4.11-.57,7.22,1.73,10.46,3.66.83,1.45,2.23,2.3,3.45,3.34,2.71,2.33,4.93,4.9,4.89,8.78C1688,183.4,1688.42,183.85,1688.64,184.29Z"/><path class="cls-1" d="M1516.88,263.48c-.05-1.21.95-1.61,1.71-2.19a4.38,4.38,0,0,0,1.91-4.78,120.37,120.37,0,0,1,13.86-41.75c2.83-5.1,5.35-10.35,8.13-15.47,4.53-8.32,9.72-16.15,16.88-22.51a17.81,17.81,0,0,0,1.48-1.64,2.64,2.64,0,0,1,2.34.91c-4.31,4.67-7.77,10-11.42,15.14-12.11,17.2-21.28,35.78-26.26,56.3a130.6,130.6,0,0,0-2.64,13.88c0,.12,0,.25,0,.37-.37,1.52-.18,3.53-2,4S1517.9,264.74,1516.88,263.48Z"/><path class="cls-1" d="M1563.19,176.05c-.88-.06-1.83.09-2.34-.91,7.86-17.84,16.11-35.49,26.43-52.08.46-.74.91-1.48,1.36-2.22,3.09-1.39,1.93-3.78,1.44-6,.22-.7.9-.79,1.44-1,1-.47,2.23-.78,3.13.09s.6,2.08.18,3.15a16.84,16.84,0,0,1-1.07,2.37q-8.19,14.21-16.41,28.38a17.9,17.9,0,0,1-1.95,2.71,2.82,2.82,0,0,0-.14,3.73c-.41,1-1.3,1.37-2.07,2-2.31,1.77-2.38,2.8-.33,4.91a2.77,2.77,0,0,1,.8,1.55c-1.46,2.58-2.9,5.18-4.41,7.74S1566.16,175.18,1563.19,176.05Z"/><rect class="cls-2" width="1844" height="834.67"/></g></g></svg>