<?xml version="1.0" encoding="utf-8"?>
<!-- Generator: Adobe Illustrator 24.0.2, SVG Export Plug-In . SVG Version: 6.00 Build 0)  -->
<svg version="1.1" id="Capa_1" xmlns="http://www.w3.org/2000/svg" xmlns:xlink="http://www.w3.org/1999/xlink" x="0px" y="0px"
	 viewBox="0 0 1844 834.7" style="enable-background:new 0 0 1844 834.7;" xml:space="preserve">
<style type="text/css">
	.st0{opacity:5.000000e-02;}
	.st1{fill:#D6D6D6;stroke:#FFFFFF;}
	.st2{fill:none;}
</style>
<title>Recurso 10</title>
<g id="Capa_2_1_" class="st0">
	<g id="Capa_1-2">
		<path class="st1" d="M1495.8,354.6c1.5,2.2,3.6,3.9,5.4,5.9c-0.2,1-1.1,1.8-2.1,1.9c-4.7-1.7-7.4-5.7-10.5-9.1
			c-2.1-2.6-4-5.4-5.6-8.3c-1.7-3.1-5-5.1-8.6-5c-1,0-2-0.1-3-0.3c-5.6-1.1-6.9-3-5.8-8.6c1-4.2,1.6-8.5,1.8-12.9
			c0.1-4.1,2.3-6.4,7-6.8c3.9-0.4,7.8-1.6,11.1-3.7c3.3-1.9,6.7-2.4,10.3-0.6c2.3,1.2,4.8,1,7.3,0.4c5.4-1.3,10.8-2.9,16-4.9
			c1-0.1,2,0.3,2.5,1.1c0.5,0.7,1.5,0.9,2.2,0.4c0.1-0.1,0.2-0.2,0.3-0.3c4.8-3.1,9.3-6.5,14.1-9.7c3.9-2.6,4.3-3.9,2.4-8
			c-1.7-3.8-3.2-7.8-4.5-11.8c-0.8-2.1-1.8-4.2-2.8-6.3c-1.4-3.4-3-6.7-3.2-10.5c0.5-0.8,1.5-1.2,2.5-1.1c1.4,0.6,2.4,1.8,2.7,3.3
			c0.6,2.3,1.9,4.3,3.7,5.8c0.3,0.7,0.5,1.4,0.5,2.1c0,0.5,0,1.1,0,1.6c0,0.9,0.2,1.7,0.5,2.5c1.3,4.2,2.9,8.2,4.9,12.1
			c1.2,2.4,2.4,3.1,4.8,1.3c17.7-13.5,37.1-24.6,55.1-37.6c3.3-2.4,7.1-4.1,10.2-6.8c2.1-1.8,4.2-1.4,6,0.5
			c7.3,8,15.5,15.3,20.8,25.1s12.8,18,19.8,26.5c6.4,7.6,11.9,15.9,18.1,23.7c7.8,9.9,17,18.1,28.9,22.8c0.3,0.2,0.6,0.4,0.9,0.6
			c0.4,1.7,1.9,2.4,3.1,3.4c-2.2,0.8-4.3,1.8-6.4,2.8c-5.2,2.6-10.8,4.6-16.5,5.8c-13.7,3.1-27,7.4-40,12.8
			c-5.6,2.3-11.3,4.5-17.5,5c-4.4,0.4-8.7-0.1-12.5-2.5c-0.3-1.3,0.7-1.6,1.5-2.1c1.1-0.3,2.2-0.3,3.3-0.1c6.4,1.1,13,0.3,19-2.3
			c15.1-6.7,30.8-11.2,46.8-15c4.8-1.2,9.5-2.9,14-5c-1.8-1.9-3.9-2.2-5.8-2.9c-4.5-1.6-8.4-4.4-11.4-8.1
			c-12.9-16.3-26.4-32-39.3-48.4c-6-7.6-10.7-16.2-16.8-23.8c-3.8-4.8-8.4-8.8-12.6-13.2c-0.7-0.9-2-1.1-3-0.5
			c-0.4,0.2-0.9,0.5-1.3,0.8c-19.2,14-39.6,26.2-58.9,40.1c-1.5,1.1-3,2.2-4.6,3.2c-2,1.1-3.3,2.3-2.3,5c0.7,1.9-0.6,3.1-2.7,3
			c-3.8-0.3-6.5,2-9.4,4c-1.5,1-2,2.4-0.3,3.6c7.8,5.7,8.2,14.6,10,22.9c-0.7,1.1-0.7,2.5-1.9,3.2c-1.6-2.7-2-5.8-2.8-8.8
			c-0.7-3-1.7-5.9-2.9-8.8c-1.8-3.9-5-6.9-9-8.4c-0.7-0.5-1.7-0.4-2.3,0.3c-4.4,4.2-9.9,6.4-15.8,7.8c-0.6,0.2-1.1,0.4-1.6,0.7
			c1.9,3.4,3.7,6.8,5.6,10.1c0.6,1.3,0,1.9-1.2,2.2c-2.1-0.1-2.8-1.8-3.8-3.2c-1.1-1.8-2.1-3.6-3.4-5.3c-2.6-3.2-5.6-4.7-9.7-3
			c-1.6,0.6-3.4,0.8-5.1,0.6c-3.1-0.3-5,1-5.5,4.1c0,0.7-0.7,1.3-1.4,1.3c-0.6,0-1-0.4-1.2-0.9c-0.5-1.1-0.2-2.4-1-3.4
			c-2.6,0.4-4.3,3-4.1,6.5c0.1,1.7,0.7,3.4,0.6,5.2c-0.1,1.1,0,2.5-1.3,2.8c-1.1,0.2-1.7-0.9-2.2-1.8c-2.1-3.7-2.7-7.4-0.8-11.4
			c0.4-0.8,1.5-1.9,0.2-2.6c-0.9-0.4-1.9,0-2.3,0.9c0,0.1-0.1,0.2-0.1,0.3c-1.1,5.2-3,10.2-2.1,15.6c0.3,1.7,1.8,2.6,3.3,3.3
			c2.1,0.9,2.5-0.6,3.2-2s1.7-1.3,2.8-0.5c1.3,1,2.4,2.2,3.2,3.6C1487.4,343,1490.6,349.4,1495.8,354.6z"/>
		<path class="st1" d="M1444.2,173.8c4.3-8.8,8.8-17.6,12.7-26.5c3.5-7.7,7.6-15.1,12.5-22c1.4-2.1,3.4-3.1,5.8-2.2
			c1.7,0.6,2.5,0,3.5-1.1s2.1-2.1,3.1-3.2c10.1-11.4,22.6-19.4,36-26.1c12.8-6.4,27.1-8.8,41.3-7.1c10.2,1.2,19.7,5.6,27.2,12.8
			c0.7,0.9,0.3,1.4-0.6,1.8c-1.1,0.1-2.2-0.3-3.1-1c-18-12.5-37.1-12.9-56.9-5.3c-12.6,4.7-24.1,12-33.8,21.4
			c-5.7,5.5-12.4,10-17,16.7c-0.8,1.4-2.3,2.1-3.8,1.7c-1.5-0.4-1-1.8-1-2.5c-10.1,17.1-17.8,35.8-25.7,54.3
			c-2.8,6.5-5.5,13.1-8.2,19.6c-2.3,5.2-2.9,11.1-1.6,16.7c1.9,8.6,2,17.5,1.9,26.3c-0.1,5-0.2,10,0.1,14.9c0.1,1,0.1,2.3,1.2,2.5
			s1.5-1,2-1.9c1.2-2.1,2.1-4.2,2.8-6.5c9.2-27.3,23.7-52.6,42.5-74.4c9.7-11.2,19.7-22.1,30.3-32.4c1.8-1.7,3.6-3.5,6.1-4.1
			c0.9-0.1,1.8,0.6,1.8,1.6c0,0.1,0,0.2,0,0.3c-0.2,1.5-1.5,2.2-2.5,3.2c-17,16.7-33.2,34-46.5,53.9c-11.2,16.8-20.3,34.9-27.1,53.9
			c-1.3,3.4-2.8,6.6-4.6,9.8c-1.3,2.4-3.2,3.9-6.1,3.3s-4-2.7-4.3-5.5c-0.4-4.6-1.1-9.1-0.8-13.8c0.6-10.1-0.7-20.1-1.5-30.1
			c-0.1-2.8-1.5-5.3-3.7-7c-0.9-0.5-1.5-1.4-1.6-2.4c1-1.9,1.4-4.1,3.2-5.6c0.5-0.2,1.1-0.2,1.6,0c2.3,0.6,1.8-1.5,2.2-2.5
			c3.4-8.9,6.8-17.8,10.1-26.7C1442.2,177,1442.7,175.1,1444.2,173.8z"/>
		<path class="st1" d="M1659.3,183.6c-1,0.9-2,1.9-3,2.7s-2.2,2-4,1.9c-0.3-2.3,0.9-3.9,2.3-5.3c1-1.1,2.2-2.1,3.1-3.2
			c0.6-0.7,1.3-1.6,0.5-2.7s-1.8-2-3.1-1.3c-2.3,1.2-4.5,2.6-6.7,4c-0.4,0.3-0.7,0.7-0.9,1.2c-1.7,4.1,1.6,10.6,6,11.5
			s8.8,1.4,13.2,2.3c6.2,1.3,12.4,2.1,18.7,2.3c8.5,0.3,14.3,6.6,15,15.2c0.3,3.6,0.1,7.2,1.4,10.6c0.4,1.1,0.3,2.3-0.2,3.3
			c-0.4,1-0.9,2.2-2.1,2.5c-1.4,0.3-1.3-1.1-1.9-1.9c-0.4-0.5-0.9-0.8-2-0.4c1.1,3.9,2.9,7.5,5.1,10.9c0.5,0.8,1.3,1.5,1.8,2.4
			c1.3,2.6,4,4.2,6.8,4.2c2.6,0.1,4.9,1.6,5.9,4c0.8,2.1,0.2,2.9-2,2.1c-0.3-0.2-0.7-0.3-1-0.5c-7.3-4.2-13.4-2.9-18.1,4.1
			c-2.6,3.8-5.8,7.1-9.3,11.1c2-0.6,4-1.5,5.7-2.7c4.6-3,9.5-5.5,14.6-7.3c0.7-0.4,1.4-0.6,2.1-0.7c3.3,0.1,6.6-0.7,9.4-2.4
			c0.6,0.5,1.1,1,1.5,1.6c1.3,2.1,0.3,3.9-2.2,4.1c-0.1,0-0.2,0-0.4,0c-5.7-0.9-10.6,1.4-15.5,3.9c-7,3.6-13.8,7.4-19.8,12.5
			c-0.8,0.6-1.5,1.3-2.2,2c-0.2,0.1-0.2,0.4-0.3,0.9c2.1,1.1,4.3,0.8,6.4,0.1c1.4-0.5,2.7-1.1,4-1.9c8.1-5,17.4-6.5,26.5-8.3
			c2.7-0.5,4,0.4,4.7,3c0.8,3,1.2,6.1-0.4,9c-0.4,0.5-0.2,1.4-0.8,1.6c-3.3,1-3,3.6-2.7,6.1c-2.3,3.4-5.7,5.6-8.7,8.2
			c-0.8,0.7-1.7,1.3-2.7,0.6s-1-2-0.7-3.1c0.3-1.1,0.9-2.1,1.6-2.9c2.4-3.3,4.9-6.5,7.6-9.7c1.1-1.2,2.1-2.5,2.9-3.9
			c0.7-1.3,1-2.6,0.1-3.9s-2.3-0.7-3.4-0.5c-8.5,2-17,3.7-24.6,8.4c-3.8,2.4-8,2.6-12.3,2c-5.7-0.8-7-4.1-3.4-8.5
			c8.1-9.9,16.3-19.8,24.9-29.3c1.7-1.9,2-3.5,0.8-5.7c-1.1-1.9-2.3-3.8-3.3-5.9s-2.1-1.7-3.2-0.2c-1.1,1.5-2.3,2.9-3.7,4.2
			c-2.4,2-5,2.9-7.8,0.9c-1.9-1.4-3.1-0.7-4.3,1c-2.9,3.9-7.6,6-12.4,5.5c-4.3-0.3-6.1-2.9-4.6-6.9c1.2-3.4,2-6.9,4.2-9.9
			c1.1-0.9,2.1-0.9,3,0.2c0.8,3-0.6,5.6-1.3,8.3c-0.6,2.1,0,2.7,2,2.7c3.5,0,5.3-1.6,5.6-5c0.4-5.5,3.9-9,7.9-12.1
			c1.3-1.2,3.3-1,4.4,0.3c1.2,1.3,0.7,2.8-0.2,4.1c-1.1,1.6-2.7,3-3.3,5c-0.6,2.2,0.3,3.1,2.5,2.5c1.6-0.4,3-1.4,4-2.7
			c2.6-3.1,4.5-6.6,6.8-9.8c0.7-1.1,0.7-2.4,0.2-3.6c-1.3-3.5-2.5-7-3.4-10.6c-0.7-2.6-2.1-4.2-5-4.1c-2.8-2-6.2-2.8-9.6-2.4
			c-7.8-0.7-15.5-1.9-23.1-3.5c-6.2-1.3-11.2-9.6-10.2-15.9c0.4-2.8,2.3-4.6,4.7-5.9c1.6-0.8,3.3-1.2,4.8-1.9
			c1.5-0.3,2.4-2.2,4.2-1.6c4.2,0.6,6.3,4,9,6.6c0.5,0.5,0,1.2-0.3,1.7C1664.1,181.7,1661.8,182.7,1659.3,183.6z"/>
		<path class="st1" d="M1499.4,362.2c0.3-0.8,0.9-1.4,1.7-1.7c2.4,1.3,4.8,2.6,7.3,3.9c2,1.5,3.7,3.3,5.2,5.3
			c2.3,2.4,4.4,5.1,6.2,7.9c2,3.5,3.7,7.1,3.7,11.2c0.1,4.5,1.2,8.9,3,13c0.4,1.3,0.7,2.8-0.2,3.9c-3.2,4-2.8,8.5-2.2,13.1
			c0.2,1.9,0.4,3.7-0.7,5.4c-0.4,1.8-1.2,3.5-2.3,5c-1.5,2.2-2.8,4.5-2,7.3c0.3,0.7-0.1,1.5-0.8,1.8c-0.1,0.1-0.3,0.1-0.5,0.1
			c-0.9,0.3-1.8-0.1-2.1-1c0,0,0,0,0,0c-0.2-0.6-0.4-1.2-0.5-1.8c-2.6-10.5-7.7-20.3-15-28.4c-3.7-4.2-6.9-8.8-9.8-13.6
			c-2.5-4.1-5-8.3-7.7-12.4c-4.4-6.5-10.3-10.5-18.5-11c-5.3-0.3-9.8-2.8-13.7-6.2c-5.3-4.7-10.3-9.7-15-15
			c-3.2-3.5-6.2-7.2-9.2-10.8c-0.3-1.3,0.5-1.7,1.5-1.9c1.9,0.2,2.9,1.8,4.2,2.9c6.3,6,12.1,12.5,18.4,18.5c6,5.6,12.7,9.5,21,10.4
			c6.7,0.7,11,5,14.5,10.1c5.5,8.1,10.5,16.6,15.8,24.8c3.7,5.6,8.6,10.3,12.2,16.1c0.4-3.7,1.6-7.3,3.5-10.5
			c2.8-5.1,2.5-10.2,0-15.4c-4.6-9.4-10-18.4-16.1-26.8C1500.4,365.2,1499,364,1499.4,362.2z"/>
		<path class="st1" d="M1702.7,505.5c-2.8,14.9-9.3,28-18.5,39.9c-1.4,1.9-3,3.7-4.4,5.5c-1,1.3-2,2.7-4,2c-1.8-0.7-2.2-2.3-2.1-4
			c0.2-3.6,0.1-7.3,1.4-10.7c3.2-8.4,4.7-17.3,7.1-25.8c1.4-4.9,3.2-9.7,5.4-14.3c5.7-11.9,9-24.8,9.8-38c0.7-9.8,1.4-19.6,2.7-29.3
			c1-7.8-0.2-15.8-3.3-23c-1.2-3.4-2.9-6.6-4.8-9.6c-4.5-6.3-5.3-13.3-2.6-20.6c2.2-5.6,5.1-10.8,8.7-15.6c1-0.5,1.9-0.6,2.6,0.4
			c0.4,0.8,0.3,1.7-0.2,2.4c-0.6,0.8-1.3,1.5-2.2,1.9c-1.1,1.9-2.2,3.9-3.3,5.8c-4.8,8.3-5.2,16.7-0.2,25.1c1.2,2,2.4,4.1,3.6,6.1
			c2.2,3.6,3.5,7.7,4,11.9c0.6,5.2,1.8,10.3,1.2,15.6c-0.3,2.7-1.3,5.3-1.7,8c-0.6,4.8-0.8,9.7-0.8,14.5c0.1,6.5-0.7,12.9-2.4,19.2
			c-0.2,0.7-0.4,1.4-0.3,2.2c0.2,5.1-1.5,9.7-3.6,14.3c-6.6,14.6-11.7,29.9-15.3,45.5c-0.8,2.7-1.4,5.5-1.7,8.4
			c-0.1,1.5-0.4,3,0.6,4.6c6.2-7,11.3-14.9,15.4-23.4c3.3-7.1,5.5-14.7,6.5-22.5c0.1-1.4,0.1-2.7,0-4.1c0-2.6,0.1-2.7,3.2-2.2
			C1704.7,499.1,1703.1,502.2,1702.7,505.5z"/>
		<path class="st1" d="M1585.4,403.1c-2.1-6.5-5.5-12.3-8.8-18.2c-1-1.5-1.8-3.2-2.4-4.9c-0.3-1.3,0.3-1.6,1.4-1.5
			c6.1,8.3,10.4,17.5,14,27.1c0.8,2.3,2,4.5,3.4,6.6c3.3,4.6,6.3,9.5,10.7,13.3c2.6,2.3,4.2,5.5,6,8.5c8.5,14,14.2,29.2,19,44.8
			c1.8,5.7,3.7,11.3,5.8,16.9c1.3,3.5,1.5,7.2,1.9,11.4c-1.7-0.8-3.2-2.1-4.4-3.7c-2.1-2.4-3.8-5.3-4.8-8.4
			c-3.4-10.4-8.4-20.2-13.2-30c-5.1-10.4-10.1-20.8-14.7-31.4c-1.9-4.7-4-9.3-6.5-13.7c-2.2-3.7-4.6-7.1-8.2-9.5
			c0.4-1.5,2-2.7,1.3-4.6v-0.3C1585.6,404.8,1586,403.8,1585.4,403.1z"/>
		<path class="st1" d="M1429.3,208.2h-1.4c-1.5-1.4-0.7-3-0.3-4.5c1.4-5.3,3.8-10.2,4.8-14.5c-3.8,6-6,13.7-8.3,21.4
			c-0.4,1.2-1,2.4,0.8,2.9c3,2.3,5.7,4.8,5.8,9c-1,0.7-1.3,2.7-3.2,1.9c-0.6-1.8-1.5-3.5-3.4-4.4c-2.3-0.8-2.4,1.3-2.9,2.4
			c-1.9,4.4-3,9-3.4,13.7c-0.6,4.7-1.1,9.4-2.1,14c-2.9,13.5-1.9,26.9-0.6,40.4c0.4,5,0.9,9.9,1.6,14.8c0.2,1.1,0.1,2.3-0.4,3.3
			c-0.3,0.3-0.7,0.6-0.9,0.3c-2.5-4-5.9-7.7-5.2-13c1.1-1.9,0.8-4,0.4-5.8c-2.5-11.9-1.3-23.7,0-35.6c0.5-4.4,1.4-8.8,1.7-12
			c-2.1,11.4-3.2,23-3.3,34.6c-0.1,3.7,0.3,7.4,1.3,11c0.5,1.9,1,3.9-0.1,5.8c-1.8,0.2-1-1.1-1.3-1.8c0.2,3.5,1.9,7.3-0.4,10.9
			c-0.1-6.3-2.4-12.4-2-18.8c0.3-4.6-0.9-9.1-0.9-13.7c0-7.7,0.9-15.4,2.8-22.9c5.4-21.2,12.6-41.9,21.7-61.8
			c1.9-4.2,4-8.3,7.4-11.5c1.1-1,2-2.3,3.7-2.1c1.3,1.4,0.9,3,0.3,4.5c-3.8,9.1-6.3,18.8-9.8,28
			C1431.2,206.2,1431.3,208,1429.3,208.2z"/>
		<path class="st1" d="M1607,530.8c0-0.5-0.1-0.9-0.1-1.4c-0.4-0.8,0-1.7-0.5-2.4c-2.6-15.3-4.3-30.7-8.3-45.8
			c-3.3-12.7-8.2-25-14.6-36.6c-3.6-6.6-7.8-12.7-12.7-18.3c-7.9-9-15-18.5-20.2-29.4c-2-4.3-3.1-8.9-5.8-12.9
			c-0.8-1.2-1-2.6,0.4-3.6s2.6-0.3,3.6,0.7s2,2.2,3,3.3c0.6,1.9-2.6,2.4-1.5,4.4c4.2,10.3,10.4,19.5,17.2,28.2
			c4.2,5.5,8.5,11,12.8,16.5c9.2,11.6,15,24.8,19.3,38.8c4.5,14.5,7.6,29.3,9.1,44.4c0.7,6.5,1.3,13.1,4.7,19
			c0.2,0.4,0.4,0.9,0.5,1.4c0.2,1.5-0.4,2.1-1.9,1.7c-1-0.3-1.8-0.7-2.6-1.4C1607.8,535.6,1607.6,533.1,1607,530.8z"/>
		<path class="st1" d="M1604,583.8c2.3-1.1,4.9-1,7.3-1.2c7.2-0.7,14.4-1.2,21.6-1.6c8.2-0.4,16.3-1.9,24.5-1.9c4,0,8-0.3,11.9-0.3
			c15.2-0.1,30.3-1.6,45.5-0.7c10.8,0.7,21.6,1.6,32.4,1.5c0.9-0.1,1.8,0.1,2.5,0.6c0.6,0.4,1.3,0.7,2.1,0.7
			c7.3,0.2,9.3,0.7,8.9-8.1c-0.1-3.1,0-6.2,0.3-9.3c0.1-1.6,0.6-3.1,0.9-5.2c1.3,2,2,4.3,1.9,6.7c0.1,4.2,0,8.5,0.1,12.7
			c0,1.6,0.2,3.2,0.3,4.8c0.3,2.8-0.5,3.6-3.4,3.1c-4.5-0.8-9-1.7-13.5-2.7c-4.6-0.9-9.4-1.3-14.1-1.2c-16.2-0.3-32.3-1.1-48.5-0.6
			c-12.9,0.4-25.9,0.3-38.8,1.3c-8.9,0.7-17.8,1.6-26.7,2.5c-4.8,0.4-9.7,0.6-14.5,0.4C1604.3,584.9,1604,584.4,1604,583.8z"/>
		<path class="st1" d="M1656.6,170.7c-1.3,0.5-2,2-3.4,2.3c-3.1-5.6-8.5-8.9-13.1-12.9c-8.2-7.1-17.2-13.2-26.7-18.2
			c-8.7-4.4-18.1-7.1-27.8-7.9c-6-0.6-12.1,1.1-17.7,3.8c-7.7,3.7-15.4,7.6-22.4,12.5c-1.1,1-2.6,1.5-4.1,1.5
			c-1.9-0.9-2.5-2.5-2.7-4.4c1.6-5.1,5.7-8.3,9.4-11.7c1.5-1.1,2.9-2.4,4.2-3.7c4.5-5.4,10.2-7.5,17.1-7c3.4,0.3,6.9-0.1,10.4,0.1
			c2.8,0.1,5.7,0.3,8,2.3c0.6,2-0.8,2.5-2.3,2.4c-5.8-0.4-11.7,0.9-17.4-0.3c-2.7-0.5-5.5,0.1-7.8,1.7c-3.8,2.4-7,5.5-10.8,8.7
			c1.1,0.3,2.3,0.1,3.3-0.5c5.4-2.3,10.8-4.5,16-7c5.1-2.3,10.8-3.2,16.3-2.5c1.8,0.3,3.7,0.1,5.4-0.6c3.4-0.6,6.2,1.2,9.2,2.2
			c3.2,1,6.2,2.4,9.5,3c1.3-0.2,2.7-0.5,3.8,0.5c1.9,3.3,5,5.3,8.2,7.2C1634.3,149.8,1646.3,159.4,1656.6,170.7z"/>
		<path class="st1" d="M1527.2,406c2,1.6,2.7,3.9,2.9,6.2c1.1,17.1,1.2,34.2-2,51.2c-1.5,8-4.8,15.4-8.5,22.5
			c-5.5,10.6-12.1,20.5-19.6,29.8c-0.4,0.6-0.9,1.1-1.5,1.6c-7.1,5.2-14.2,10.4-21.3,15.6c-1.2,0.3-1.6-0.2-1.4-1.4
			c3.9-3.1,7.7-6.2,11.6-9.4c2.1-1.7,4.2-3.5,6.2-5.3c7.1-6.3,13.3-13.3,17.6-21.9c4.4-8.9,9.5-17.5,12.4-27
			c1.7-5.7,2.7-11.6,2.8-17.6c0.2-5.1,0.6-10.2,0.8-15.3c0.3-3.7,0-7.5-0.8-11.1c-2-5.5-1.1-11.1-0.7-16.7c0-0.8,0.6-1.4,1.4-1.4
			C1527.1,406,1527.1,406,1527.2,406z"/>
		<path class="st1" d="M1535.3,524.8c0.2,4.4,1.4,6.1,5.4,7.3c1.9,0.5,3.9,0.8,5,2.8c0.4,0.8,1.3,0.6,2,0.6c2.2,0.1,4.5,0.5,6.5,1.4
			c16.4,6.4,31.9,14.4,45.3,26c0.6,0.5,1.1,0.9,1.7,1.5c0.7,0.6,0.8,1.6,0.2,2.4c-0.6,0.7-1.6,0.8-2.3,0.2c0,0-0.1,0-0.1-0.1
			c-0.5-0.4-1-0.7-1.4-1.2c-13.1-12-28.6-19.6-45.2-25.2c-3.6-1.2-7.1-2.8-10.8-3.7c-3.5-0.8-6.3-3.3-9.3-5.3
			c-0.4-1.9,0.5-3.5,0.7-5.3C1533.3,525.1,1533.8,524.1,1535.3,524.8z"/>
		<path class="st1" d="M1535.3,524.8c-1.5,0.1-1.6,1.3-1.6,2.4c0.1,1.6-0.4,3.1-1.4,4.3c-3.7-0.4-7.3-1.1-10.9-1.9
			c-3.6-0.9-7.4-1-11.1-0.2c-6.1,1.4-11.9,3.7-17.2,6.9c-1.7,1-3.2,2.3-4.6,3.7c-0.9-0.3-1.6-1-1.9-1.9c3.2-4.2,7.5-6.7,12.4-8.3
			c3.4-1.1,6.4-3.4,10.2-2.6c2.1,1.2,4.3,0.3,6.5,0.2c3.3-0.1,6.6,0.9,9.8-0.2l5.7,1c0.8-1,0.3-2,0.3-3c0.1-3.4,1.8-5.9,5.1-6.4
			c6.5-1.1,12.9-2.5,19.5-2.8c4.7-0.2,9.3,1.2,13.9,2c1,0.1,2,0.7,2.5,1.6c-1.9,1.7-3.9,1.2-5.9,0.5c-10.5-3.4-20.3-1-29.8,3.5
			C1536.3,524.1,1535.8,524.4,1535.3,524.8z"/>
		<path class="st1" d="M1715.3,285.7c-1.6-3.9-1.6-3.9,2.2-5.9c0.6-0.4,1.1-0.9,1.6-1.4c0.4,0.7,1,0.6,1.6,0.5
			c3.3-0.5,5.8,0.9,7.9,3.2c2.7,2.8,5.4,5.5,8,8.3c7.9,8.6,10.6,18.8,9.2,30.3c-0.7,5.9-3.5,10-9.6,11.3c-1.1-0.4-2.6-0.3-3.1-1.8
			c0.1-0.2,0.2-0.5,0.4-0.6c8.6-6.9,10.8-15.7,6.4-26.3c-2.7-6.4-7.2-11.6-11.9-16.5c-2.7-2.8-6.1-3.7-9.8-1.6
			C1717.2,285.7,1716.3,286.4,1715.3,285.7z"/>
		<path class="st1" d="M1621.2,365.6l-1.6,1.8c-15-3.6-29.3-9.2-43.7-14.5c-8.1-2.9-15.5-7.4-21.8-13.2c-0.8-0.7-1.5-2.2-3.1-1.5
			c-0.7-1.2-0.2-2.3,0.6-3.2c1.5-0.3,2.6,0.7,3.7,1.5c1.5,1.1,3.1,2,4.6,3.2c8.2,6.9,17.8,10.5,28,13.3c10.5,2.9,20.7,6.9,31,10.6
			C1619.8,364,1621.1,364.2,1621.2,365.6z"/>
		<path class="st1" d="M1486.6,538.2c1,0,1.9,0.8,1.9,1.9c-3.2,5.7-8.3,10-14.5,12.1c-14.2,5.1-25.1,14.3-33.8,26.4
			c-1.9,2.5-4,4.8-6.2,6.9c-0.8,0.6-1.3,1.6-2.4,1.6c-0.7-0.1-1.3-0.4-1.7-1c0-1.6,1.2-2.3,2.4-3.1c3.4-3.6,6.6-7.4,9.6-11.3
			c5.3-7.2,12.2-12.6,20-16.9c4.2-2.4,8.6-4.4,13.1-6.1c2.8-1,5.2-2.9,6.9-5.4C1483.3,541.5,1484.4,539.3,1486.6,538.2z"/>
		<path class="st1" d="M1498.2,353c-3.3-1.4-5.8-4.2-6.9-7.6c-2.2-5.9-5.1-11.5-6.2-17.8c-0.4-2.2-0.6-4.4-0.4-6.6l1.5-0.7
			c2.1,0.6,2.1,2.6,2.6,4.1c1.5,5,3,10,4.4,15c1.7,6.4,5.6,10.3,12.2,11.5c7.7,1.4,15.3,2,22.9-0.4c0.4-0.1,0.8,0.1,1.1,0.3
			c0.1,0.5,0.2,1,0.3,1.4c0.6,2.3,0.4,2.5-1.8,2.9c-8.3,1.5-16.6,2.2-24.8-1.2C1501.6,353.3,1499.9,353,1498.2,353z"/>
		<path class="st1" d="M1604,583.8c0.5,0.3,0.9,0.9,0.8,1.5l-2.8,0.1c-3,0.8-6.1-0.3-9.1,0.6l-4.3,0.2c-2,0.7-4.1-0.2-6.1,0.5
			c-4.1,0.1-8.2,0.3-12.3,0.3c-7.1,0-14.2,0.5-21.2,1.3c-13.4,1.5-26.8,1.5-40.2,1.7c-2.7,0-5.5,0-8.2,0c-1.4,0.4-2.9,0.3-4.3-0.1
			c1.2-1.8,3-0.7,4.1-1.4c7.9-0.4,15.9,0,23.8-0.8c5.9-0.6,11.9-1,17.8-1.7c6.2-0.7,12.4-0.1,18.6-0.7c3.1-0.4,6.3-0.4,9.5,0h3.9
			c2-0.6,4.2,0.3,6.2-0.6l2.1-0.1c5.3-0.7,10.6-0.1,15.9-0.3c1.5-0.1,3,0.3,4.4-0.3L1604,583.8z"/>
		<path class="st1" d="M1500.3,588.5c-0.8,0.8-2.1,0.3-3.7,1.1l3.9,0.5c-7,0.8-14,1.7-21.1,1.5c-16.2-0.3-32.5-0.7-48.7-1.9
			c-0.7-1.2-0.1-2.1,0.9-2.8c0.7-0.6,1.2-1.7,2.4-1.4c1.9,2.4,4.6,2.8,7.4,2.8l41.4,0.2C1488.6,588.4,1494.4,588.4,1500.3,588.5z"/>
		<path class="st1" d="M1725.8,506.8c8.6,4,16.4,9.5,23,16.2c6,6.3,10.5,13.5,12.5,22.1c0.6,2.5,1,5.1-0.5,7.6
			c-1.1-0.5-1.3-1.5-1.5-2.4c-0.4-1-0.6-2.1-0.8-3.3c-0.2-7.3-4-12.9-8.5-18.2c-6.3-7.4-13.9-13.6-22.3-18.4l-3.5-2.1
			C1723.6,506.7,1724.3,506.4,1725.8,506.8z"/>
		<path class="st1" d="M1575.6,378.5c-0.6,0.3-1.2,0.8-1.4,1.5c-2.6-2.4-4.2-5.5-6.1-8.4s-3.8-5.5-7-6.9c-1.1,0.4-1.2,1.3-1.6,2.1
			c-2.2,4.2-5.6,6.3-10.3,6c-6.4-0.4-12.7-2-18.9-3.5c0-1.5,1-1.2,1.6-1.3c3.7-0.4,7.4-0.1,11,1c2.2,0.6,4.4,0.8,6.7,0.5
			c5-0.5,8.8-4.7,8.7-9.7c1.6,1.5,2.3,0.2,3.1-0.9c0.8,0.9,1.5,2,2.4,2.8C1568.6,366.6,1572.6,372.3,1575.6,378.5z"/>
		<path class="st1" d="M1698.2,366.7c0.1-0.9,0.9-1.4,1.4-2.1c1.2-1.7,1-2-1.5-2.6c2.7-1.2,3.1-1.1,3.9,1c0.2,0.6,0.4,1.2,0.5,1.8
			c0.1,0.5,0.2,0.9,0.6,2.3c4.5-10.6,12.3-18.1,18-27c-0.8-0.7-1.5-0.3-2-0.4c2.1-2.8,4.4-3,7.5-0.8c-3.1,3.9-6.3,7.7-9.3,11.6
			c-4.4,5.3-7.9,11.1-10.6,17.4c-0.3,0.8-0.7,1.6-1.3,2.2c-2.2,2.4-4.8,1.9-5.8-1.2C1699.2,368.1,1699.1,367.2,1698.2,366.7z"/>
		<path class="st1" d="M1475.7,531.7c0.3,0.6,0.8,1,1.3,1.3c-13.4,10.9-26,22.8-39,34.2c-0.4,0.3-0.8,0.5-1.3,0.8
			c-0.1-3.1,1.5-5.1,3.5-6.8c2.9-2.5,5.9-4.9,8.8-7.5c6.1-5.7,11.8-11.8,18.5-16.8C1470,534.8,1472.7,533,1475.7,531.7z"/>
		<path class="st1" d="M1550.2,388.9c-1.4-0.8-1.8-1.7-0.3-2.8c0.7-0.5,1.5-0.8,1.8-1.7c9.8,6.8,19.6,13.6,29.3,20.4
			c1.5,1,3.1,1.7,4.9,1c0.4,0.9,0.8,1.7,1.3,2.6c-0.8,0.8-2.2,0.7-2.6,1.9c-11-6.8-22.6-12.9-32.3-21.7
			C1551.6,388,1550.8,387.4,1550.2,388.9z"/>
		<path class="st1" d="M1561.6,358.9c-0.2,2.4-0.2,2.4-1.6,4.4c-1.1-1-0.1-2.8-1.5-3.5c-2.4-3.8-5-7.5-6.4-12c-0.9-2.9-3-5.4-4.5-8
			s-3-5.1-3.5-8.1c0.5-1.1-0.5-3,1.6-3.3c2.6,1.7,4.7,4,6,6.8c0.3,1.1-0.6,2-0.6,3c-0.1,1.2,0.2,2.5,1.1,3.4c1.9,2.1,3,4.7,4.9,6.9
			C1559.4,351.6,1561,355.1,1561.6,358.9z"/>
		<path class="st1" d="M1410.7,296.2c-0.1,1.6,0.2,3.2,1.1,4.6c1.4,2.7,2.7,5.5,4,8.3c0.4,0.3,0.7,0.7,0.8,1.2
			c0.9,1.7,2.8,3,2.3,5.3c-1,3.3,0.4,6.5,0.5,9.7c-0.3,1.6-0.6,3.2-2.7,3.1c-2.5-1.7-4.1-4.1-3.8-7.2c0.6-6.6-1.3-12.5-4.5-18
			c0.6-3.8-0.2-7.5,0-11.6c1.1,0.8,0.6,2.1,1.4,2.6C1410.5,294.5,1411,295.4,1410.7,296.2z"/>
		<path class="st1" d="M1613,135c-1.3-0.1-2.6,0.1-3.8,0.6c-3.1-8.6-8.1-16.5-14.6-23c-2.4-2.5-4-5.8-7.1-7.9c-1.6-1-2.5-3-2.1-4.8
			c0.5-0.3,0.9-0.9,0.8-1.5C1597.5,108.8,1607.9,120,1613,135z"/>
		<path class="st1" d="M1607,530.8c2.3,1.8,1.9,4.3,2.2,6.7c-1.9-0.4-3.8-1.1-5.6-2c-7.4-3.4-14.7-7.3-21.9-11.1
			c-0.7-0.4-1.4-0.8-2.6-1.6c2.8-0.5,5.6-0.1,8.1,1.2c5.1,2.2,10,4.9,14.9,7.7C1604.9,533.1,1604.8,533.2,1607,530.8z"/>
		<path class="st1" d="M1726.5,338.9c-2.5-1.1-5.3-0.8-7.5,0.8c-2.2,1.2-4,3.2-6.6,3.8c-0.6,0-1.2,0-1.8-0.1
			c-1.9-0.3-2.2-1.3-1.2-2.9c0.3-0.4,0.8-0.7,1.3-0.8c0.9-0.1,1.7-0.4,2.5-0.7c5.3-2.1,10.2-5.2,15.3-7.6c1.4-0.6,2.8-1.8,4.5-0.8
			c1.2,0.3,2.6,0,3.1,1.6L1726.5,338.9z"/>
		<path class="st1" d="M1513.5,326.3c0.9,0,1.7-0.7,1.8-1.6c0,0,0-0.1,0-0.1c2.4,2.5,5.7,3.5,8.9,4.4c4.7,1.3,9.2,2.9,13.7,4.6
			c1.6,0.4,2.9,1.5,3.6,3c-0.5,1.1-1.2,1.9-2.6,1.8c-5.8-3-12.1-4.3-18.3-6C1517.3,331.5,1513.8,330.6,1513.5,326.3z"/>
		<path class="st1" d="M1725.8,506.8c-0.9,0.1-1.7,0.4-1.6,1.6c-4.6-1.5-9-3.5-13.2-5.9c-1.4-0.8-2.8-1.5-4.3-2.2
			c-2-0.9-2.4-0.7-2.7,1.4c-0.2,1.4-0.3,2.7-1.4,3.7c-0.3-3.3-0.1-6.6,0.7-9.8c6,1.6,11.3,4.8,16.8,7.8
			C1722.1,504.5,1724,505.7,1725.8,506.8z"/>
		<path class="st1" d="M1538.9,338c1-0.3,1.4-1.5,2.5-1.5c0.6,0.5,1.1,1,1.6,1.5c0.7,0.9,0.4,1.6-0.5,2.1c-0.5,0.3-1.1,0.5-1.7,0.7
			c-5.1,1.4-9.4,5-11.4,9.9h-0.7c-2.6-2.9-2.4-6.7,0.7-8.9C1532.2,339.9,1535.4,338.5,1538.9,338z"/>
		<path class="st1" d="M1513.6,369.6c-2.4-1-4.3-2.9-5.2-5.3c6.1,0.6,12.2,1.2,18.6,2c-2.3,3.1-4.9,2.7-7.4,2.2
			c-1.4-0.4-2.9-0.6-4.4-0.6c-0.8-0.1-1.6,0.6-1.6,1.4C1513.6,369.4,1513.6,369.5,1513.6,369.6z"/>
		<path class="st1" d="M1432.3,583c-0.4,1.2-1.2,2.3-2.3,2.9c-1.1,1.1-2.3,1.6-3.8,0.7c1-2.8,2-5.5,3-8.3c0.9-2.9,3-5.3,5.8-6.6
			c0.6,2.5-1,3.9-1.8,5.5S1430.7,580.9,1432.3,583z"/>
		<path class="st1" d="M1659.3,183.6l5.9-4.5c-0.1,2.3,0.6,4.5,2,6.3c0.8,1.2,1.3,2.7,1.2,4.2c0,0.7,0.1,1.6-0.7,1.9
			c-1,0.4-1.7-0.3-2.2-1c-0.7-1-1.3-2.1-1.9-3.2C1662.7,185.5,1661.5,183.9,1659.3,183.6z"/>
		<path class="st1" d="M1416.7,328.4c1.3-0.5,1.5-1.9,2.1-2.9c4.2,2.5,7.5,6.4,9.2,11c-0.8,0.3-1.4,0.9-1.7,1.7
			C1423,335,1419.1,332.5,1416.7,328.4z"/>
		<path class="st1" d="M1525.6,527.3c-0.2,1.1-1,1.3-1.9,1.3c-4.1,0-8.2-0.1-12.3-0.1c-0.9,0-1.7-0.5-2.1-1.3c0.5-0.1,1-0.1,1.4-0.3
			C1515.6,525.7,1520.7,525.8,1525.6,527.3z"/>
		<path class="st1" d="M1426.1,586.7c1.2-0.4,2.5-0.7,3.8-0.7c0.7,0.1,1.3,0.2,1.7,0.9c-0.3,0.9-0.6,1.8-0.9,2.8
			c-1.8,1-3.4,2.5-5.5,2.9c-1,0.2-1.3-0.3-1.1-1.3c0.7-1.4-0.4-3.4,1.5-4.4C1425.8,586.8,1425.9,586.7,1426.1,586.7z"/>
		<path class="st1" d="M1425.6,586.9c-0.5,1.5-0.4,3.2-1.5,4.4c0.1-1.4-0.6-2-1.9-2.2l-4.4-0.7c-1.8-0.2-3.4-0.9-4.8-2
			c1.3-0.4,2.8-0.5,4.2-0.3c1.5,0,3,0.1,4.5,0.2S1424.2,586.7,1425.6,586.9z"/>
		<path class="st1" d="M1602.5,583.9c-0.4,0.5-1,0.7-1.7,0.7l-18.6-0.1c2.4-0.9,4.9-0.6,7.3-0.6
			C1593.9,583.8,1598.2,583.9,1602.5,583.9z"/>
		<path class="st1" d="M1592.8,586c3-1.4,6.1-0.6,9.1-0.6C1599,586.3,1595.9,586.1,1592.8,586z"/>
		<path class="st1" d="M1570,585.2c-3.1,0.2-6.3,0.2-9.5,0C1563.7,584.5,1566.9,584.5,1570,585.2z"/>
		<path class="st1" d="M1580.1,584.6c-2,1.3-4.1,0.6-6.2,0.6C1575.9,584.5,1578,584.3,1580.1,584.6z"/>
		<path class="st1" d="M1582.4,586.7c2-1.2,4.1-0.6,6.1-0.5C1586.5,587,1584.4,586.8,1582.4,586.7z"/>
		<path class="st1" d="M1606.4,527c0.6,0.6,0.8,1.6,0.5,2.4C1606.3,528.8,1606.1,527.9,1606.4,527z"/>
		<path class="st1" d="M1585.4,403.1c0.7,0.6,1,1.6,0.6,2.4C1585.5,404.9,1585.2,404,1585.4,403.1z"/>
		<path class="st1" d="M1606.3,194.7c-11.6,1.6-19.7,8.3-26.1,17.6c-1.5,2.1-2.8,4.4-4.2,6.6c-1.5,2.4-3.6,4-6.4,4
			c-2.4,0-3.9,1.3-5.3,2.9s-2.8,3.2-4.2,4.8c-0.8,1-1.7,1.9-3.2,1.5c-1.8-0.6-1.3-2.1-1.4-3.4c0-2,0.3-4,1-5.9
			c0.5-1.9,0.9-3.9-0.1-5.6c-0.6-0.4-0.9-0.2-1.1,0.1c-4.3,5.1-8.7,10.2-13,15.4c-3.6,4.3-6.5,9.1-8.7,14.3
			c-0.8,2.1-1.7,4.1-0.9,6.5c0.4,1.1-0.2,2.2-0.5,3.3c-0.6,0.4-1.3,0.7-2,0.7c-2-3.9-3.8-7.8-5.5-11.9c-0.1-2,1.4-2.5,2.5-1.6
			c2.7,2.1,3.8,0.8,5-1.5c1.9-4.9,5-9.1,8.2-13.1c4.6-5.7,9.8-10.8,14.8-16.1c2.8-2.8,5.2-6,6.9-9.6c1.7-1.2,4.2,0.8,5.7-1.4
			c7.5-6,15.6-11,25.2-12.9c1.3,0.1,2.8-0.2,3.7,1.2c-0.2,2.4-2.3,2.7-4,3.3c-8.7,3.3-17,7.7-24.5,13.3c-5.4,4-6.8,9.4-7.5,16
			c6.5-3.3,12.1-7.9,16.6-13.6c2.8-3.6,5.3-7.5,8.8-10.6c6.8-5.9,14.4-8.6,23.4-7c0.8,0.4,1.9,0.6,1.9,1.9
			C1609.9,195,1607.9,193.8,1606.3,194.7z"/>
		<path class="st1" d="M1538.3,265.7c4.8-7.1,9.8-14.2,17.3-18.6c5.3-3,10.3-6.4,15.7-9.2c4.3-2.3,8.5-4.6,11.9-8.1
			c2.3,0.4,4.7,0.1,6.7,1.7c-5.1,0.6-9,3.7-13.2,6.3c-4.4,3-9.1,5.5-14,7.6c-1.9,0.9-3.7,2-5.2,3.5c-6.9,5.8-13.3,12.3-19.1,19.2
			L1538.3,265.7z"/>
		<path class="st1" d="M1536.7,274.1c-3,0.3-4.5,2.6-6.1,4.5c-3.1,4-5.6,8.6-7.2,13.4c-1.5,4.2-0.7,8.3,0.8,12.4
			c-1.9,2.1-1.9,2.1-3.1-0.1c-0.3-0.5-0.8-0.9-1.4-1.1c-1.4-11.5,3.9-20.6,10.8-29c1.5-1.8,2.9-3.7,3.4-6.1
			C1534.8,270,1535.7,272,1536.7,274.1z"/>
		<path class="st1" d="M1484.5,320.3c-1-1.1-0.6-2.5-0.6-3.8C1485,317.6,1484.5,319,1484.5,320.3z"/>
		<path class="st1" d="M1538.5,269.3c0.5,0.7,0.7,1.6,0.4,2.4C1538.3,271.1,1538.1,270.1,1538.5,269.3z"/>
		<path class="st1" d="M1528.7,146.3c-0.9-1.1-1.8-0.9-2.8,0c-0.9,1-2,1.8-3.2,2.2c-0.1-0.9-0.8-1.6-1.7-1.7c2.6-2.8,5-5.8,9.1-6.5
			C1532.5,143.5,1532.1,145,1528.7,146.3z"/>
		<path class="st1" d="M1686.1,201.4c-0.6,5.8-3.4,10.2-8.6,12.6c-5.7,2.4-10.1,7.1-12.2,12.8c-0.6-0.4-1.5-0.4-2.1,0
			c0.2-1,0.4-1.9,0.6-2.9c0.7-5.1,3.3-8.7,8.2-10.6c3.6-1.5,6.4-4.1,9.2-6.8c0.8-0.8,1.4-1.8,1.7-2.9c0.7-2.6,0-3.7-2.7-3.9
			c-1.4-0.1-2.7-0.1-3.8-1.1C1679.9,198.1,1683.3,198.5,1686.1,201.4z"/>
		<path class="st1" d="M1516.5,381.3c-3.1-2.7-3.8-3.8-4.6-7.6C1514.7,374.9,1515.9,376.7,1516.5,381.3z"/>
		<path class="st1" d="M1619.8,469.5c1.9,0.1,1.3-1.3,1.5-2.3c2.3,4.4,4,9,5.2,13.8c0.7,2.5,1.7,4.9,2.5,7.4
			c0.4,1.1-0.1,1.7-1.2,1.8c-0.8,0.1-1.5-0.2-1.5-1.1C1625.8,482.1,1621.8,476.1,1619.8,469.5z"/>
		<path class="st1" d="M1427.9,224.8c-2.3,7.9-4.8,15.8-6.3,23.9c-1.3-4.2-1-8.5-0.3-12.6c1-5.3,2.3-10.6,3.6-15.9
			C1427.7,220.8,1427.7,220.8,1427.9,224.8z"/>
		<path class="st1" d="M1521.8,175.1c5.1-5.3,9-11.8,11.3-18.8c1-3.4,3.1-6.4,6-8.6l2.2,3.7c-0.9,1.8-2.8,2.8-3.8,4.6
			c-0.3,0.6-1,1.3-0.2,2c0.6,0.4,1.5,0.4,2.1,0c1.2-0.6,1.6-1.8,2.5-2.7c1.5-1.4,2.9-1.4,4.2,0c0.5,0.4,0.6,1.1,0.2,1.6
			c-0.1,0.1-0.2,0.2-0.3,0.3c-3.3,3.1-6.6,6.2-9.9,9.3c-0.3,2.3-2.7,2.3-3.8,3.7c-2.7,2.7-5.2,5.7-7.5,8.8
			C1521.6,178.9,1521.3,178.4,1521.8,175.1z"/>
		<path class="st1" d="M1416,310.5c1.4-0.1,2.1-1.1,2.8-2.2c2.1-3.5,4.3-6.9,6.4-10.5c3.1-5.4,7.1-10.1,10.9-15
			c3.6-4.7,7-5.3,12.5-3c2.2,0.9,4.2,2.1,6.2,3.4c3.5,2.4,3.7,2.4,5.8-1.3c1.3,3.2,0.7,4.3-3.6,7c-2.7-1.8-5.3-3.7-8-5.5
			c-3.2-2.1-6.3-2-9.3,0.4c-3.5,2.6-6.5,5.8-8.7,9.6c-4.1,7.4-8.1,14.8-12.7,21.8c0.1-1.3-0.6-2.6-1.8-3.3
			C1416,311.7,1415,311.3,1416,310.5z"/>
		<path class="st1" d="M1710.6,340.3c0.7-0.5,1.6-0.7,2.4-0.6C1712.5,340.4,1711.5,340.7,1710.6,340.3z"/>
		<path class="st1" d="M1531.6,169.4c1-1.7,3.4-1.4,4.5-3.1c0,0.6,0.2,1.2,0.7,1.6c2.8,2.4,2.8,5.4,1.8,8.5
			c-2.2,6.3-4.4,12.7-6.7,19c-2.4,6.5-4.8,13.1-7.4,19.5c-2.3,5.7-2.3,11.1,1,16.4c1.9,3.1,2.3,6.8,3.2,10.3
			c0.7,2.7,1.2,2.8,3.7,0.9c0,0.4-0.1,0.7-0.2,1.1c-1.3,3.8-1.3,3.9-4.5,1.3c-1.4-1.1-2.2-0.7-2.8,0.7c-4.4-6.9-7.2-14.2-6.6-22.5
			c0-1.9-0.6-3.7-1.7-5.3c-2.6-4.5-2.8-9.1-1.7-14s2.4-9.6,3.5-14.5c0.2-0.6,0.4-1.2,0.4-1.8c0.1-1.4-0.9-2.2-2.2-1.6
			c-1.1,0.6-2.1,1.3-3,2.1c-1.8-0.8-3.2-2.1-2.9-4.2c0.3-2.5,2.2-3.6,4.5-4.3c1.5,0.1,2.5-0.9,3.4-1.9s1.7-2.1,3-2.6
			c0.5,3,0.8,3.4,3,3.2c1.4,1.7,0.1,3.3-0.4,4.9c-2.6,7.7-5.1,15.3-6.3,23.4c-0.6,2.7,0,5.4,1.7,7.6c1.5-1.9,1.9-4,2.6-6
			c3.6-10.7,8.2-21,11.8-31.8C1535.3,173.1,1534.8,170.9,1531.6,169.4z"/>
		<path class="st1" d="M1589.9,231.4c-2.3-0.3-4.9,0.7-6.7-1.7c0.3-3.2,2.2-5.6,5.6-5.6c4.3,0,7.6-1.9,11-4c6.9-4.3,14.6-6.8,22.4-9
			c0.7-0.2,1.4-0.4,2.1-0.7c1.3-1.2,2.6-2.1,4.3-0.8c2.1,2.3,2.2,3,0,4.2c-1.9,1-3.3,2.7-4,4.7c-1.1,3.2-4.1,5.5-7.5,5.6
			c-5.6,0.6-10.8,2.7-16.1,4.4C1597.4,229.9,1593.7,230.8,1589.9,231.4z"/>
		<path class="st1" d="M1624.1,187.1c-8.6-1.4-16.7,0.6-24.7,3.2c-0.9,0.3-1.7,1-2.8,0.8c-1-1.4-2.6-0.5-3.9-0.9
			c0.2-1.8,1.8-1.9,3-2.4c6.5-3,13.6-4.8,20.8-5.2c1.1-0.1,2.8,0.4,3-1.3c0.2-1.5-1.2-2.4-2.5-2.9c-1.9-0.7-4-0.7-5.8,0.1
			c-7.4,2.6-15.3,3.2-22.9,4.8c-8,1.6-15.2,4.9-19.3,12.6c-1.2,2.3-2.6,4.7-0.9,7.3c-1.8,2.7-4,0.8-6.1,0.6c0.7-4.7,2.4-9.2,5-13.1
			c3-4.7,7.7-8,13.1-9.3c11.2-2.7,22.5-5.3,33.7-7.9c4.7-1.1,7.5,0.7,8.7,5.2c0.5,1.7,0.8,3.4,1.9,4.8
			C1625.6,184.7,1625.1,186,1624.1,187.1z"/>
		<path class="st1" d="M1628.7,209.7c-1.6-0.4-2.9,0.5-4.3,0.8c0.9-4-0.5-7.2-3.5-9.9c-2.6-2.3-5.8-3.8-8.7-5.5
			c-1.8-1-3.9,0-5.8-0.4c1.3-1.3,3-0.4,4.5-0.9c0-0.9-1.3-0.5-1.5-1.3c4.1-0.6,7.2,1.7,10.5,3.7c0.8,1.4,2.2,2.3,3.4,3.3
			c2.7,2.3,4.9,4.9,4.9,8.8C1628.1,208.8,1628.4,209.3,1628.7,209.7z"/>
		<path class="st1" d="M1456.9,288.9c-0.1-1.2,1-1.6,1.7-2.2c1.6-1,2.4-2.9,1.9-4.8c2-14.6,6.7-28.8,13.9-41.8
			c2.8-5.1,5.3-10.4,8.1-15.5c4.5-8.3,9.7-16.1,16.9-22.5c0.5-0.5,1-1.1,1.5-1.6c0.9-0.1,1.8,0.2,2.3,0.9c-4.3,4.7-7.8,10-11.4,15.1
			c-12.1,17.2-21.3,35.8-26.3,56.3c-1.1,4.6-2,9.2-2.7,13.9c0,0.1,0,0.2,0,0.4c-0.4,1.5-0.2,3.5-2,4S1457.9,290.2,1456.9,288.9z"/>
		<path class="st1" d="M1503.2,201.5c-0.9-0.1-1.8,0.1-2.3-0.9c7.9-17.8,16.1-35.5,26.4-52.1l1.4-2.2c3.1-1.4,1.9-3.8,1.4-6
			c0.2-0.7,0.9-0.8,1.4-1c1-0.5,2.2-0.8,3.1,0.1s0.6,2.1,0.2,3.1c-0.3,0.8-0.7,1.6-1.1,2.4c-5.4,9.5-10.9,18.9-16.4,28.4
			c-0.6,1-1.2,1.9-1.9,2.7c-1,1-1,2.6-0.1,3.7c-0.4,1-1.3,1.4-2.1,2c-2.3,1.8-2.4,2.8-0.3,4.9c0.4,0.4,0.7,1,0.8,1.6
			c-1.5,2.6-2.9,5.2-4.4,7.7S1506.2,200.6,1503.2,201.5z"/>
		<rect class="st2" width="1844" height="834.7"/>
	</g>
</g>
</svg>
